<?xml version="1.0" standalone="no"?>
<!DOCTYPE svg PUBLIC "-//W3C//DTD SVG 20010904//EN"
 "http://www.w3.org/TR/2001/REC-SVG-20010904/DTD/svg10.dtd">
<svg version="1.0" xmlns="http://www.w3.org/2000/svg"
 width="1024.000000pt" height="1024.000000pt" viewBox="0 0 1024.000000 1024.000000"
 preserveAspectRatio="xMidYMid meet">
<metadata>
Created by potrace 1.14, written by Peter Selinger 2001-2017
</metadata>
<g transform="translate(0.000000,1024.000000) scale(0.100000,-0.100000)"
fill="#000000" stroke="none">
<path d="M0 5120 l0 -5120 5120 0 5120 0 0 5120 0 5120 -5120 0 -5120 0 0
-5120z m5468 4175 c604 -63 1140 -238 1683 -550 318 -183 597 -401 894 -699
407 -407 661 -779 908 -1326 57 -127 140 -382 196 -605 108 -429 144 -1086 86
-1575 -18 -158 -87 -524 -93 -495 -2 11 -9 26 -16 34 -8 11 -8 13 0 8 7 -4 15
0 18 9 9 23 7 36 -3 30 -9 -6 -22 17 -20 37 0 7 4 3 9 -8 7 -16 9 -12 10 20 1
22 3 56 4 77 2 20 -3 47 -10 60 l-13 23 -1 -25 c-1 -25 -1 -25 -13 4 -10 23
-9 51 5 150 30 214 38 335 38 611 -1 609 -96 1108 -307 1600 -395 925 -1166
1716 -2088 2142 -489 227 -960 345 -1480 372 -277 15 -493 0 -814 -55 -424
-72 -907 -249 -1313 -480 -546 -311 -1062 -798 -1419 -1339 -131 -198 -190
-302 -283 -497 -175 -366 -293 -781 -341 -1199 -68 -598 -25 -1184 124 -1704
11 -38 18 -72 15 -74 -2 -2 -4 2 -4 10 0 12 -2 11 -10 -1 -8 -11 -9 -7 -4 14
4 17 3 27 -3 23 -5 -3 -10 10 -10 28 -1 30 -33 84 -33 56 0 -25 -17 -8 -37 34
-17 38 -19 52 -11 79 8 25 7 44 -5 77 -14 40 -15 42 -15 14 0 -16 -5 -43 -11
-60 -9 -25 -9 -20 -5 30 l5 60 -15 -40 c-14 -36 -13 -44 7 -105 14 -43 18 -67
11 -67 -13 0 -49 141 -40 156 4 5 2 12 -3 15 -5 3 -14 36 -20 73 -7 38 -18
104 -26 148 -53 294 -65 843 -27 1200 77 719 319 1350 740 1935 652 905 1606
1521 2667 1723 131 26 332 54 415 60 144 10 525 5 658 -8z m-27 -380 c409 -39
758 -132 1164 -312 94 -41 272 -133 340 -176 79 -49 114 -77 105 -82 -5 -3
-10 -1 -10 6 0 7 -3 10 -6 6 -15 -14 8 -27 29 -16 17 9 20 9 10 -1 -6 -7 -9
-19 -6 -26 3 -8 0 -14 -6 -14 -6 0 -11 4 -11 10 0 5 -8 6 -17 3 -11 -4 -13 -8
-5 -11 7 -2 9 -9 6 -14 -4 -6 -3 -9 2 -6 16 10 54 -11 54 -29 -1 -17 -1 -17
-11 0 -11 19 -44 23 -55 6 -4 -7 0 -9 13 -5 12 4 25 1 32 -8 6 -8 22 -12 34
-10 12 2 16 2 9 -2 -25 -12 1 -24 51 -24 54 0 88 -13 73 -27 -4 -4 -195 -10
-424 -13 -229 -3 -365 -8 -302 -10 63 -3 154 -4 203 -2 82 2 87 1 87 -18 0
-23 10 -24 60 -10 19 6 58 8 87 4 57 -7 57 -11 -7 -52 -19 -12 -29 -22 -22
-22 7 0 10 -4 7 -10 -4 -6 5 -7 24 -4 57 12 100 -4 118 -42 9 -18 20 -34 25
-34 12 0 10 18 -3 22 -7 2 -10 11 -7 19 3 9 10 4 21 -17 26 -50 11 -60 -68
-45 -48 10 -73 10 -93 3 -49 -20 -103 -31 -118 -25 -23 9 13 43 45 44 l26 1
-29 10 c-22 8 -31 8 -34 0 -5 -15 -32 -16 -32 -2 0 6 6 10 13 11 10 0 10 2 0
6 -7 2 -13 13 -13 23 0 28 -88 34 -115 8 -16 -15 -17 -20 -6 -27 11 -7 9 -13
-9 -31 -18 -18 -24 -19 -31 -9 -10 17 -45 -12 -53 -47 -4 -16 -13 -24 -29 -24
-12 0 -47 -1 -77 -4 -30 -2 -60 -1 -65 2 -6 4 -2 -1 9 -11 15 -14 21 -15 27
-5 4 7 12 9 16 4 4 -5 2 -11 -4 -13 -7 -3 -13 -9 -13 -15 0 -6 7 -8 14 -5 10
4 13 1 10 -8 -4 -9 -35 10 -102 64 -310 246 -617 386 -982 448 -129 22 -446
24 -560 4 -312 -54 -609 -178 -852 -354 -37 -26 -73 -45 -79 -42 -6 4 -26 -7
-44 -25 -28 -27 -36 -30 -54 -21 -22 12 -28 31 -10 31 5 0 7 5 4 11 -4 6 -13
8 -21 5 -8 -3 -14 -1 -14 4 0 6 -6 9 -12 7 -21 -4 -22 41 -1 46 10 3 -1 5 -24
6 -24 0 -43 6 -43 11 0 6 -18 10 -40 10 -22 0 -40 -4 -40 -10 0 -5 -18 -10
-40 -10 -30 0 -40 4 -40 16 0 14 -9 16 -50 12 -41 -4 -53 -2 -63 12 -7 10 -21
20 -32 23 -11 2 -1 5 23 6 23 0 42 6 42 11 0 6 8 10 18 11 16 0 16 1 -1 12
-27 19 96 33 302 35 95 1 176 4 179 7 3 3 -201 5 -454 6 -424 0 -525 5 -482
21 8 4 36 10 62 13 25 4 57 16 70 26 13 11 36 19 50 19 14 0 26 5 26 10 0 6
-13 10 -29 10 -17 0 -33 -4 -36 -10 -8 -13 -35 -13 -35 1 0 5 5 7 10 4 6 -3
10 -1 10 4 0 6 18 11 39 11 22 0 42 4 45 8 3 5 -9 7 -27 6 -18 -2 -23 -1 -12
2 11 3 25 12 30 19 6 7 19 15 30 18 15 4 14 5 -7 6 -15 0 -29 5 -32 10 -8 13
31 58 41 48 4 -5 -1 -15 -11 -23 -21 -15 -10 -19 13 -5 8 5 11 16 8 25 -15 37
363 223 686 336 309 108 578 164 932 193 117 10 431 5 576 -8z m-2260 -552
c-11 -4 -11 -7 0 -13 7 -5 14 -16 15 -24 1 -10 -2 -13 -9 -9 -15 9 -67 11 -67
2 0 -4 6 -10 13 -12 7 -3 5 -6 -5 -6 -10 -1 -18 -5 -18 -11 0 -5 -5 -10 -12
-10 -9 0 -9 3 0 12 16 16 15 31 0 23 -7 -4 -5 0 5 9 11 8 26 12 35 9 10 -4 14
-3 10 2 -8 9 20 35 37 34 6 0 4 -3 -4 -6z m3946 -49 c-3 -3 -12 -4 -19 -1 -8
3 -5 6 6 6 11 1 17 -2 13 -5z m-4047 -18 c0 -2 -7 -7 -16 -10 -8 -3 -12 -2 -9
4 6 10 25 14 25 6z m2318 -50 c391 -72 743 -258 1032 -546 103 -102 234 -259
274 -328 6 -11 -8 -13 -71 -12 -43 1 -87 1 -99 1 -12 -1 -63 -37 -115 -82 -51
-45 -107 -92 -124 -105 l-31 -23 -1014 0 c-1103 0 -1267 -1 -1232 -8 12 -3 22
-12 22 -22 0 -14 7 -16 35 -13 23 3 35 0 35 -8 0 -8 -9 -10 -25 -6 -14 4 -25
2 -25 -3 0 -6 337 -10 903 -9 821 0 1063 5 1168 23 l37 7 1 -104 2 -103 -1013
3 c-557 1 -1032 0 -1055 -3 -37 -5 -43 -9 -43 -31 l0 -24 1055 2 1055 3 0 -98
c0 -72 -3 -96 -12 -95 -10 2 -13 -17 -13 -69 0 -63 2 -73 17 -73 14 0 18 -8
18 -40 0 -32 -3 -38 -16 -33 -9 3 -20 0 -25 -8 -5 -9 -9 39 -9 122 0 155 -6
172 -60 167 l-35 -3 -5 -165 c-3 -91 -7 -159 -8 -151 -2 11 -5 11 -19 0 -9 -8
-14 -9 -10 -3 4 7 1 14 -6 17 -17 6 -1755 7 -1739 1 23 -10 12 -29 -18 -30
l-30 -2 0 153 c0 165 -6 185 -53 185 -49 0 -52 -10 -50 -152 l1 -133 -24 0
-24 0 0 322 0 321 -36 21 c-19 12 -32 25 -29 31 3 5 0 7 -8 5 -7 -3 -67 41
-141 105 l-127 110 -101 0 c-83 0 -99 2 -86 13 8 6 25 30 38 52 43 74 184 241
285 337 36 35 103 87 255 199 183 135 554 270 830 303 74 9 388 -3 468 -18z
m1747 -4 c-3 -3 -11 0 -18 7 -9 10 -8 11 6 5 10 -3 15 -9 12 -12z m-185 -172
c0 -5 -8 -10 -17 -10 -15 0 -16 2 -3 10 19 12 20 12 20 0z m-3652 -22 c4 13
42 -7 42 -22 0 -4 -7 -3 -15 4 -25 21 -26 6 -1 -21 12 -13 21 -30 18 -37 -2
-6 1 -12 7 -12 6 0 11 7 11 16 0 14 3 14 15 4 8 -7 15 -20 15 -30 0 -26 -61
-31 -108 -8 -20 9 -50 15 -67 13 -114 -15 -115 -15 -115 0 0 8 6 15 13 15 6 0
26 16 42 36 33 39 87 57 120 41 13 -7 20 -6 23 1z m-138 -12 c0 -3 -4 -8 -10
-11 -5 -3 -10 -1 -10 4 0 6 5 11 10 11 6 0 10 -2 10 -4z m218 -8 c7 -7 12 -20
12 -30 0 -10 10 -23 23 -28 16 -6 17 -9 5 -9 -9 -1 -24 8 -32 20 -8 12 -19 18
-25 15 -13 -9 -22 8 -15 28 7 19 16 20 32 4z m-245 -32 c-3 -4 -9 -2 -14 5
-13 22 -11 31 5 17 8 -7 12 -17 9 -22z m292 -6 c3 -5 -1 -10 -9 -10 -9 0 -16
5 -16 10 0 6 4 10 9 10 6 0 13 -4 16 -10z m245 0 c0 -5 -18 -10 -40 -10 -22 0
-40 5 -40 10 0 6 18 10 40 10 22 0 40 -4 40 -10z m3054 -5 c3 -8 1 -15 -4 -15
-6 0 -10 7 -10 15 0 8 2 15 4 15 2 0 6 -7 10 -15z m-2874 -74 c-36 -32 -48
-37 -59 -28 -12 10 -14 9 -8 -5 4 -13 1 -18 -11 -18 -15 0 -15 -2 -2 -11 13
-9 13 -10 0 -6 -10 2 -15 16 -15 39 l-1 36 29 -15 c26 -13 31 -13 50 4 12 10
26 24 30 31 4 6 13 12 20 12 7 0 -8 -18 -33 -39z m3179 -37 c-29 -31 -54 -38
-88 -24 -23 9 -51 45 -51 66 0 2 21 2 48 -1 26 -3 61 -2 77 3 39 11 46 -10 14
-44z m-3709 36 c0 -15 -35 -52 -58 -61 -34 -13 -73 3 -95 40 l-16 28 84 0 c47
-1 85 -4 85 -7z m-357 -14 c81 -29 153 -114 166 -195 6 -33 9 -36 42 -37 37
-1 95 -18 137 -40 19 -9 63 -14 141 -14 100 0 112 -2 101 -15 -11 -13 -80 -15
-506 -15 l-494 0 0 54 c0 59 13 80 58 97 14 6 38 7 54 4 25 -6 28 -4 28 18 0
29 47 96 85 121 56 37 123 45 188 22z m4466 -19 c45 -30 67 -59 86 -113 12
-35 13 -36 68 -37 30 -1 58 -5 62 -9 4 -4 10 -36 12 -73 l6 -65 -498 2 c-363
2 -499 6 -502 14 -3 8 32 13 114 16 94 4 127 9 163 26 25 12 64 22 88 22 33 0
42 4 42 18 0 37 58 139 101 175 53 46 87 57 161 54 41 -2 67 -10 97 -30z
m-5029 -267 c0 -87 -4 -140 -10 -140 -6 0 -10 35 -10 84 0 45 -5 98 -11 115
-9 25 -9 38 1 57 8 13 17 24 22 24 4 0 8 -63 8 -140z m5440 -11 c0 -108 -2
-129 -15 -129 -13 0 -15 22 -15 141 0 125 2 140 15 129 12 -10 15 -39 15 -141z
m-5552 -230 l3 -41 -35 36 c-20 19 -36 41 -36 47 0 7 -3 10 -6 6 -6 -6 -64 19
-64 27 0 3 3 11 6 20 5 14 16 11 68 -19 58 -32 61 -36 64 -76z m5762 89 c0
-16 -13 -31 -43 -50 -24 -15 -52 -37 -62 -48 -26 -28 -35 -25 -35 13 1 29 7
36 63 69 74 44 77 45 77 16z m-690 -62 c0 -2 -7 -9 -15 -16 -12 -10 -15 -10
-15 4 0 9 7 16 15 16 8 0 15 -2 15 -4z m-4384 -208 c426 -374 549 -487 540
-495 -6 -6 -171 121 -303 235 -49 42 -166 141 -259 219 -93 78 -186 160 -208
181 -36 38 -41 62 -13 62 7 0 116 -91 243 -202z m4609 176 l100 -13 -95 5 -96
4 -39 -41 c-42 -44 -413 -360 -518 -442 -34 -27 -101 -80 -149 -118 -47 -38
-89 -69 -92 -69 -21 0 4 33 65 85 75 63 491 430 619 546 49 44 80 66 90 62 8
-3 60 -12 115 -19z m248 -91 c-69 -60 -73 -60 -73 -5 0 47 1 49 53 82 l52 35
3 -39 c3 -35 -1 -44 -35 -73z m-5458 86 c17 -11 40 -24 53 -29 18 -8 22 -17
22 -55 0 -25 -3 -45 -6 -45 -3 0 -26 15 -51 33 -45 32 -63 60 -63 98 0 24 8
24 45 -2z m-188 -49 c54 -32 154 -95 223 -138 l125 -78 3 -42 c4 -49 -6 -53
-29 -14 -17 29 -128 106 -326 226 -82 49 -113 73 -113 87 0 10 4 19 10 19 5 0
53 -27 107 -60z m483 50 c-59 -13 -145 -22 -137 -14 10 10 81 21 132 22 l40 0
-35 -8z m5462 0 c0 -5 1 -15 2 -21 1 -6 -91 -68 -204 -138 -166 -103 -209
-134 -226 -164 -24 -43 -34 -39 -34 15 0 37 3 41 73 84 272 171 373 233 380
234 4 0 8 -4 9 -10z m-5139 -30 c3 -11 2 -20 -2 -20 -5 0 -16 9 -26 20 -18 19
-17 20 2 20 12 0 23 -8 26 -20z m3796 -85 c2 -2 -13 -21 -33 -42 -20 -21 -36
-44 -36 -50 0 -12 -13 -17 -34 -14 -4 1 -5 -14 -2 -33 6 -33 5 -35 -20 -32
-34 4 -48 29 -41 72 12 72 74 120 137 107 14 -2 27 -6 29 -8z m-3247 -15 c14
-11 31 -39 38 -65 11 -40 11 -51 -3 -78 -11 -22 -16 -26 -16 -14 -1 11 -6 16
-13 12 -7 -4 -4 1 6 9 11 9 18 17 15 19 -2 1 -22 16 -44 33 -22 17 -54 39 -72
49 -18 10 -30 22 -27 27 3 4 0 8 -6 8 -6 0 -8 5 -5 10 11 18 100 12 127 -10z
m371 -178 c23 -19 45 -40 50 -47 4 -8 6 -229 5 -493 l-3 -479 -122 55 -123 55
0 499 c0 356 3 497 11 492 6 -3 4 8 -5 24 -33 65 -17 63 65 -5 44 -37 99 -83
122 -101z m2576 -29 c-4 -104 -7 -285 -8 -403 -1 -118 -5 -221 -10 -228 -5 -8
-7 8 -5 40 3 52 3 52 -6 13 -5 -22 -9 -84 -8 -138 0 -54 -1 -99 -3 -101 -26
-17 -60 -36 -66 -36 -4 0 7 10 25 21 l32 21 0 316 c0 323 -3 362 -25 362 -6 0
-43 -26 -81 -58 l-69 -58 0 -343 -1 -342 26 5 c14 3 19 3 13 0 -7 -3 -13 -10
-13 -15 0 -11 28 -2 113 35 43 18 50 20 43 7 -3 -5 -42 -23 -85 -41 -44 -17
-85 -38 -92 -46 -6 -8 -15 -14 -20 -14 -5 0 -9 217 -9 494 l0 494 93 79 c104
90 147 123 156 123 3 0 3 -84 0 -187z m-4249 60 c29 -13 56 -26 59 -28 7 -8
14 -145 7 -145 -20 0 -102 67 -98 79 3 9 0 12 -11 8 -11 -4 -14 0 -10 16 3 16
2 18 -5 8 -8 -11 -14 -10 -36 4 -19 13 -26 26 -26 49 0 18 3 36 6 39 9 9 48
-1 114 -30z m3808 20 c-10 -2 -28 -2 -40 0 -13 2 -5 4 17 4 22 1 32 -1 23 -4z
m2009 -6 c-3 -9 3 -13 17 -13 17 1 21 -5 21 -28 0 -23 -8 -32 -40 -50 -22 -11
-56 -33 -75 -47 -19 -15 -45 -32 -58 -38 l-23 -12 3 72 3 71 54 29 c57 31 107
39 98 16z m-5495 -190 c37 -21 72 -45 78 -52 6 -7 10 -41 8 -74 l-3 -61 -135
76 c-74 42 -140 81 -147 87 -6 7 -14 45 -18 85 l-7 73 78 -47 c44 -26 109 -65
146 -87z m5305 54 l3 -69 -97 -53 c-54 -29 -122 -68 -151 -86 -30 -19 -55 -33
-57 -31 -5 5 -9 127 -4 131 45 37 277 176 294 177 6 0 11 -31 12 -69z m-5910
8 c96 -56 189 -110 471 -269 l182 -103 0 -109 c0 -59 -3 -108 -7 -108 -5 0
-53 24 -108 54 -87 47 -103 59 -122 97 -13 24 -26 60 -30 79 -6 31 -5 34 10
22 9 -8 13 -20 11 -27 -3 -8 -1 -22 5 -32 9 -15 10 -13 5 11 -8 35 -4 34 91
-23 37 -23 69 -41 71 -41 2 0 4 15 4 33 0 31 -5 35 -123 101 -67 38 -185 106
-262 151 -339 200 -326 191 -308 208 11 12 19 9 110 -44z m6401 25 c2 -13 -4
-24 -15 -28 -10 -4 -126 -69 -258 -144 -132 -75 -280 -159 -330 -187 -86 -49
-109 -75 -87 -97 6 -6 29 1 64 21 66 37 82 39 75 8 -4 -12 -2 -29 3 -37 7 -10
10 -11 10 -2 0 6 5 12 10 12 6 0 10 -7 10 -15 0 -9 6 -12 18 -8 9 3 0 -6 -20
-21 -32 -22 -221 -118 -224 -113 -1 1 -4 48 -8 104 -8 122 -16 111 137 194
154 84 529 299 557 320 31 23 54 20 58 -7z m-6477 -96 c81 -45 77 -83 -4 -42
-42 22 -67 44 -67 61 0 18 4 17 71 -19z m6521 7 c4 -19 2 -23 -7 -15 -8 6 -15
7 -17 2 -4 -13 -109 -65 -116 -57 -9 8 19 33 74 65 60 36 61 36 66 5z m-5197
-46 c19 -17 32 -36 28 -42 -3 -6 -1 -7 5 -3 7 4 59 -31 122 -80 84 -67 110
-93 110 -111 0 -12 -2 -23 -4 -23 -3 0 -51 32 -108 72 -57 39 -121 84 -144 99
-60 41 -69 55 -47 68 10 6 13 11 8 11 -6 0 -16 -5 -22 -11 -8 -8 -18 -6 -37 6
-31 20 -28 33 2 14 16 -10 23 -10 36 0 9 7 13 17 10 22 -10 17 6 9 41 -22z
m3934 17 c-3 -3 -20 -16 -39 -29 -274 -189 -360 -247 -364 -247 -3 0 -6 10 -6
23 1 21 51 64 230 193 59 43 113 62 103 37 -7 -18 1 -17 39 7 31 19 47 25 37
16z m-5073 -82 c14 -10 21 -21 17 -25 -9 -9 -83 8 -83 19 0 4 -3 18 -7 32 -7
25 -6 25 20 7 15 -9 38 -24 53 -33z m1514 25 c17 -30 5 -66 -20 -64 -29 2 -74
49 -67 69 10 25 74 21 87 -5z m3139 12 c11 -7 6 -17 -25 -45 -37 -34 -62 -47
-49 -26 3 6 2 10 -3 10 -20 0 -21 31 -2 50 21 21 56 26 79 11z m1492 -38 c-3
-21 -6 -30 -9 -21 -3 16 -6 16 -43 1 -22 -8 -42 -13 -45 -10 -5 5 83 66 96 67
4 0 4 -17 1 -37z m-1855 -122 l-36 -36 0 54 c0 47 4 56 33 83 l32 31 3 -48 c3
-44 0 -52 -32 -84z m768 91 c-6 -4 -14 -20 -18 -37 -4 -20 -3 -25 3 -16 7 11
10 9 16 -7 3 -12 2 -29 -2 -37 -10 -18 -111 -95 -124 -95 -5 0 -9 13 -9 29 0
37 -9 61 -22 61 -7 0 -9 -18 -5 -49 l6 -49 -84 -54 -83 -54 -5 45 c-3 24 -3
51 0 58 7 18 303 213 323 213 10 0 11 -3 4 -8z m-3909 -67 c33 -23 88 -58 121
-78 82 -49 85 -54 77 -116 l-6 -52 -21 19 c-12 11 -47 34 -78 52 l-58 32 0 55
c0 60 -15 64 -26 8 -3 -19 -8 -35 -11 -35 -12 0 -86 43 -103 60 -22 22 -26 70
-10 101 13 23 23 19 115 -46z m-440 15 c16 -17 16 -20 3 -15 -9 4 -19 13 -22
21 -7 19 -2 18 19 -6z m4405 -5 c0 -12 -19 -12 -23 0 -4 9 -1 12 9 8 7 -3 14
-7 14 -8z m-4908 -32 c17 -11 28 -26 28 -39 l0 -22 -47 25 c-49 26 -63 39 -63
60 0 14 33 4 82 -24z m5738 12 c0 -14 -5 -25 -11 -25 -5 0 -26 -11 -47 -25
-26 -18 -38 -21 -43 -13 -12 18 2 35 51 62 25 13 46 25 48 25 1 1 2 -10 2 -24z
m-674 -4 c-3 -5 -22 -16 -41 -25 -33 -16 -42 -42 -10 -29 30 11 14 -6 -30 -32
-25 -14 -50 -23 -57 -19 -6 4 -8 3 -4 -4 3 -6 -6 -17 -21 -24 -16 -8 -94 -49
-176 -92 -138 -73 -176 -87 -159 -59 14 22 368 223 392 222 8 0 4 -5 -9 -10
-13 -5 -21 -12 -18 -16 4 -3 21 0 38 7 27 12 29 15 15 25 -13 10 -9 16 32 38
53 30 55 31 48 18z m-4447 -31 c-7 -5 -19 -6 -26 -3 -11 5 -12 8 -2 13 7 5 19
6 26 3 11 -5 12 -8 2 -13z m4466 0 c-16 -11 -34 -20 -40 -20 -12 0 46 38 60
39 6 1 -3 -8 -20 -19z m-997 -130 l-33 -28 -3 40 c-3 35 2 46 30 75 l33 34 3
-47 c3 -42 0 -49 -30 -74z m-3271 51 c18 -10 29 -22 25 -26 -4 -5 -1 -5 5 -1
16 9 56 -17 45 -29 -4 -4 1 -5 10 -2 9 3 21 0 27 -7 9 -11 5 -12 -16 -9 -22 4
-25 2 -13 -6 8 -6 11 -11 5 -11 -20 1 -45 26 -35 36 6 6 3 10 -9 10 -11 0 -17
-4 -15 -8 3 -4 1 -8 -5 -8 -5 0 -13 5 -16 11 -4 6 -33 22 -66 36 -49 21 -57
28 -49 43 5 9 6 21 2 25 -7 7 44 -19 105 -54z m4770 41 c-10 -10 -17 -25 -17
-33 0 -12 -2 -11 -10 1 -15 23 -12 38 8 43 32 9 35 7 19 -11z m-4893 -7 c-4
-8 -11 -12 -16 -9 -6 4 -5 10 3 15 19 12 19 11 13 -6z m3193 -52 c-3 -10 -5
-4 -5 12 0 17 2 24 5 18 2 -7 2 -21 0 -30z m1187 5 c-5 -8 -2 -9 9 -5 10 3 17
2 17 -3 0 -6 -7 -10 -16 -10 -9 0 -31 -15 -50 -34 l-34 -34 0 -192 0 -192 33
7 c17 4 37 11 42 15 12 9 55 20 55 14 0 -3 -12 -9 -27 -15 -26 -10 -27 -12
-11 -23 10 -7 14 -17 11 -22 -4 -5 -1 -3 7 4 8 6 24 12 37 12 13 0 23 5 23 11
0 5 -5 7 -12 3 -7 -4 -8 -3 -4 4 4 7 1 12 -6 13 -10 0 -10 2 0 6 6 2 9 10 6
16 -5 8 -4 9 3 2 6 -5 14 -20 18 -33 6 -20 0 -25 -41 -44 -27 -11 -69 -35 -94
-53 -45 -32 -47 -32 -59 -13 -6 10 -9 28 -6 38 3 10 1 21 -4 25 -7 4 -9 -9 -7
-35 2 -22 0 -40 -5 -40 -5 0 -8 3 -8 8 1 4 1 17 0 30 -2 36 -21 15 -21 -24 0
-20 -5 -34 -12 -35 -7 0 -4 -4 6 -8 15 -6 3 -14 -55 -38 -41 -17 -119 -50
-174 -73 -55 -23 -105 -46 -111 -51 -6 -5 -14 -6 -17 -2 -4 3 -7 122 -7 264
l0 258 258 130 c141 72 258 130 260 131 2 0 0 -5 -4 -12z m-4276 -89 c97 -51
207 -108 245 -127 l67 -35 0 -263 0 -263 -82 35 c-46 19 -123 52 -173 72 -88
36 -108 49 -99 63 2 4 -2 10 -8 13 -7 3 1 3 17 0 27 -4 28 -3 7 6 -12 5 -25
16 -28 25 -3 8 -10 12 -15 9 -5 -3 -7 -9 -4 -14 3 -5 -4 -14 -15 -20 -13 -7
-20 -7 -20 0 0 5 -7 10 -15 10 -8 0 -15 5 -15 10 0 6 -6 10 -13 10 -8 0 -22 8
-31 19 -9 10 -30 21 -47 25 -46 9 -34 24 16 18 30 -3 45 -1 45 7 0 6 9 11 20
11 19 0 20 7 20 199 0 167 -2 201 -15 211 -9 7 -14 19 -11 26 3 8 2 13 -2 12
-13 -4 -52 13 -52 23 0 20 39 5 208 -82z m-221 75 c-3 -3 -12 -4 -19 -1 -8 3
-5 6 6 6 11 1 17 -2 13 -5z m-1049 -81 c97 -42 290 -122 427 -178 272 -111
265 -105 250 -181 -3 -20 -12 -34 -20 -34 -18 0 -158 61 -166 72 -3 4 -18 10
-35 12 -42 5 -63 16 -74 36 -17 33 26 43 56 13 16 -16 16 -16 9 7 -4 14 -8 26
-9 26 0 1 -35 15 -76 32 -41 16 -172 69 -290 117 -118 48 -227 92 -242 98 -26
11 -36 35 -21 50 9 10 -4 15 191 -70z m6805 42 c2 -14 2 -24 0 -21 -2 2 -43
-12 -91 -31 -48 -19 -118 -47 -157 -63 -334 -132 -311 -120 -306 -157 1 -7 -5
-13 -12 -13 -8 0 -17 -7 -21 -15 -7 -18 -32 -20 -40 -2 -3 6 -3 1 0 -12 4 -16
3 -21 -5 -17 -6 4 -11 3 -11 -2 0 -6 -11 -13 -25 -16 -14 -4 -24 -11 -22 -17
2 -9 -161 -85 -168 -77 -1 2 -5 26 -9 55 -6 48 -5 53 19 69 14 9 134 60 268
114 133 54 310 128 392 163 83 36 157 66 166 66 10 1 19 -9 22 -24z m-5339
-34 c78 -44 116 -72 116 -85 0 -11 -8 -10 -37 6 -21 10 -37 24 -35 29 1 6 -2
8 -7 4 -10 -6 -91 31 -91 41 0 3 7 3 16 0 14 -5 15 -4 4 9 -17 20 -8 19 34 -4z
m280 -5 c46 -19 76 -61 76 -107 l0 -38 -31 11 c-17 6 -34 20 -39 33 -4 12 -22
33 -39 48 -30 25 -38 46 -24 60 9 10 20 9 57 -7z m2812 -105 l-36 -36 0 47 c0
40 5 51 33 77 l32 31 3 -42 c3 -36 -1 -46 -32 -77z m374 84 c0 -13 -10 -29
-23 -38 -13 -8 -39 -30 -59 -48 -49 -47 -58 -47 -58 4 0 35 6 49 29 71 29 28
76 46 99 38 6 -2 12 -14 12 -27z m-2640 -95 c0 -47 -2 -50 -25 -50 -22 0 -25
4 -25 36 0 34 20 63 43 64 4 0 7 -22 7 -50z m2080 -10 c0 -36 -2 -40 -25 -40
-22 0 -25 4 -25 40 0 36 3 40 25 40 23 0 25 -4 25 -40z m-1899 -13 c10 -3 19
-2 19 1 0 4 143 4 317 -1 175 -4 544 -6 820 -5 276 2 505 -1 510 -5 10 -11
-53 -65 -76 -66 -9 0 -353 0 -764 0 l-748 -1 -49 26 c-48 25 -61 41 -59 72 1
16 2 16 6 1 2 -10 13 -19 24 -22z m-2575 -28 c54 -22 209 -83 344 -135 135
-52 272 -106 305 -119 33 -13 78 -30 100 -38 l40 -15 3 -78 c2 -44 1 -97 -3
-120 l-6 -41 -54 13 c-30 6 -56 9 -56 6 -1 -4 0 -62 1 -129 2 -107 0 -123 -14
-123 -9 0 -16 -7 -16 -15 0 -9 6 -12 15 -9 23 9 21 -82 -2 -95 -13 -6 -22 -5
-31 5 -7 8 -8 14 -2 14 5 0 10 5 10 10 0 6 -9 10 -19 10 -42 0 -51 10 -50 59
1 29 4 36 6 19 5 -30 21 -36 41 -16 7 7 12 8 12 3 0 -6 4 -5 8 2 4 7 6 31 3
55 -3 34 -5 39 -12 23 -5 -14 -8 -7 -8 26 -1 26 -4 62 -8 80 -7 33 -7 33 -14
9 -6 -22 -7 -20 -10 15 -2 23 -6 1 -9 -50 -6 -81 -7 -77 -6 47 1 75 -1 134 -3
132 -3 -3 -10 4 -15 14 -6 11 -24 34 -39 52 -24 28 -35 33 -69 32 -22 -1 -45
-5 -50 -9 -7 -3 -8 -1 -4 5 4 7 14 12 21 12 22 0 36 34 22 54 -12 16 -38 27
-217 93 -136 49 -323 125 -337 135 -8 7 -9 17 -2 34 5 14 9 36 9 50 0 13 4 24
8 24 5 0 53 -18 108 -41z m6933 4 c22 -76 24 -74 -131 -135 -79 -31 -168 -64
-198 -73 -30 -9 -69 -23 -86 -30 -16 -8 -60 -28 -97 -44 -63 -28 -77 -45 -52
-63 6 -4 0 -8 -13 -8 -12 0 -36 -14 -52 -30 -23 -24 -30 -27 -30 -13 0 9 10
27 22 40 12 13 16 23 10 23 -25 0 -45 -39 -48 -92 -1 -29 -3 -55 -3 -57 -1 -3
-7 2 -13 11 -12 14 -16 13 -38 -15 -15 -19 -19 -29 -10 -25 11 4 15 -1 15 -18
0 -20 -2 -22 -11 -9 -19 25 -34 17 -33 -17 1 -31 1 -32 9 -8 7 21 8 21 9 5 1
-29 -10 -65 -20 -65 -5 0 -9 23 -9 50 0 57 -2 58 -76 35 -27 -8 -50 -15 -52
-15 -1 0 -2 54 -1 119 l2 120 46 19 c25 11 177 70 336 130 160 61 337 131 395
155 58 25 108 46 112 46 4 1 12 -16 17 -36z m-2239 -21 c0 -31 -5 -41 -29 -55
-16 -9 -31 -17 -33 -17 -14 0 8 78 26 92 31 25 36 22 36 -20z m-3510 -48 c0
-51 -1 -53 -22 -45 -20 7 -23 17 -26 65 l-3 56 26 -12 c22 -10 25 -17 25 -64z
m-292 48 c10 -7 12 -143 10 -648 -3 -581 -4 -639 -19 -642 -15 -3 -17 21 -21
218 -5 287 3 1080 11 1080 3 0 12 -4 19 -8z m4812 -32 c0 -34 -4 -42 -30 -55
l-30 -16 0 56 c0 54 0 55 30 55 28 0 30 -2 30 -40z m254 -22 c3 -29 6 -317 6
-639 0 -527 -2 -587 -16 -593 -9 -3 -20 -4 -25 0 -10 6 -13 1242 -3 1268 13
33 31 15 38 -36z m-5471 7 c0 -6 -8 -11 -19 -12 -10 -2 -13 0 -6 3 6 3 9 10 6
16 -4 6 -1 9 5 7 7 -3 13 -9 14 -14z m3833 -20 c-4 -19 -7 -122 -7 -230 0
-165 -2 -195 -14 -195 -12 0 -15 21 -15 118 0 140 -5 152 -49 126 l-31 -18 2
-127 c2 -79 -1 -126 -7 -126 -6 0 -11 46 -12 115 -1 63 -4 116 -6 118 -2 2
-18 -2 -36 -9 l-32 -12 2 -130 c1 -71 4 -135 6 -141 5 -15 37 -10 102 14 77
30 53 13 -42 -29 l-82 -36 -3 201 c-1 110 0 210 3 221 4 15 206 173 224 175 2
0 0 -16 -3 -35z m-1706 -53 l105 -78 -3 -215 -3 -216 -47 22 c-26 13 -73 35
-104 49 -49 23 -58 32 -63 59 -10 62 -10 457 0 457 6 0 57 -35 115 -78z m-234
23 c11 -27 -1 -30 -23 -7 -22 21 -22 22 -2 22 11 0 22 -7 25 -15z m1489 -5 c0
-13 -59 -15 -459 -18 -462 -2 -475 -1 -476 31 0 4 210 6 468 5 407 -3 467 -5
467 -18z m599 1 c-18 -11 -34 -25 -37 -33 -3 -7 -6 -1 -6 13 -1 33 5 39 43 39
l31 0 -31 -19z m186 -31 c0 -5 -5 -10 -11 -10 -5 0 -7 5 -4 10 3 6 8 10 11 10
2 0 4 -4 4 -10z m-3511 -28 c32 -16 56 -60 26 -48 -7 2 -31 10 -54 17 -29 8
-41 18 -41 31 0 23 24 23 69 0z m781 -63 c63 -31 167 -79 231 -109 l117 -53 5
-66 c6 -80 -2 -171 -16 -171 -6 0 -8 35 -5 94 3 52 2 99 -1 105 -4 5 -86 46
-183 90 -263 119 -298 138 -298 161 0 22 -13 27 150 -51z m1488 42 c317 1 585
6 595 11 15 7 17 4 17 -27 0 -29 -4 -36 -17 -34 -29 2 -39 -1 -26 -9 6 -4
-237 -6 -540 -4 -304 2 -562 0 -575 -3 -13 -3 -20 -10 -17 -15 3 -5 -10 0 -29
13 -34 22 -42 40 -30 71 5 12 10 13 25 5 13 -7 211 -9 597 -8z m1242 15 c0 -2
-7 -6 -15 -10 -8 -3 -15 -1 -15 4 0 6 7 10 15 10 8 0 15 -2 15 -4z m388 -13
c-3 -19 -68 -53 -313 -163 l-170 -77 4 -102 c2 -65 0 -101 -7 -101 -12 0 -22
96 -19 179 l2 55 240 113 c132 62 246 113 253 113 8 0 12 -8 10 -17z m-5052
-69 c-8 -8 -23 -14 -33 -14 -16 1 -15 3 6 20 26 22 49 17 27 -6z m6844 22 c0
-2 -7 -7 -16 -10 -8 -3 -12 -2 -9 4 6 10 25 14 25 6z m35 -26 c3 -5 1 -10 -4
-10 -6 0 -11 5 -11 10 0 6 2 10 4 10 3 0 8 -4 11 -10z m-5018 -47 c-6 -5 -67
21 -67 29 0 4 16 0 35 -9 19 -9 33 -18 32 -20z m4913 8 c-10 -20 -30 -29 -30
-14 0 10 33 44 37 39 3 -2 0 -14 -7 -25z m-3708 -32 c62 -2 272 -4 466 -4 330
0 352 -1 333 -17 -12 -9 -21 -26 -21 -38 0 -21 0 -21 -187 -16 -104 3 -297 5
-430 5 -225 1 -243 2 -243 19 0 9 -22 33 -50 52 -55 39 -69 62 -15 26 30 -21
49 -24 147 -27z m-2974 21 c7 -11 9 -20 4 -20 -4 0 -13 9 -20 20 -7 11 -9 20
-4 20 4 0 13 -9 20 -20z m4869 -32 c-3 -8 -6 -5 -6 6 -1 11 2 17 5 13 3 -3 4
-12 1 -19z m-3897 -8 c0 -23 -4 -24 -31 -10 -27 15 -24 30 6 30 18 0 25 -5 25
-20z m1828 -43 c21 -20 22 -27 22 -190 0 -94 -3 -167 -7 -163 -5 4 -9 44 -9
88 -2 96 -13 188 -22 187 -23 -4 -41 3 -46 17 -10 27 4 36 30 19 21 -13 24
-14 24 0 0 8 -13 21 -30 30 -29 15 -50 42 -50 65 0 12 47 -17 88 -53z m1133
35 c-6 -11 -26 -29 -46 -41 l-35 -20 -1 -138 c-2 -159 -2 -143 3 -167 1 -10
-2 -21 -8 -23 -13 -4 -26 311 -14 335 7 13 103 82 108 77 2 -2 -1 -12 -7 -23z
m1793 14 c-7 -18 -32 -28 -46 -20 -7 5 -4 12 7 21 25 17 46 17 39 -1z m-4494
-82 c157 -54 319 -116 345 -131 11 -6 16 -15 12 -19 -9 -9 -553 169 -585 191
-11 9 -19 22 -16 29 4 12 16 10 62 -6 31 -11 113 -40 182 -64z m3595 76 c3 -5
1 -10 -4 -10 -6 0 -11 5 -11 10 0 6 2 10 4 10 3 0 8 -4 11 -10z m835 -4 c0
-25 -27 -43 -92 -64 -35 -11 -155 -52 -268 -91 -113 -39 -213 -71 -223 -71
-35 0 -10 25 49 49 73 29 516 190 527 190 4 1 7 -5 7 -13z m-5634 -42 c-3 -9
-6 -171 -6 -360 0 -299 -2 -344 -15 -344 -13 0 -15 45 -15 341 0 215 4 347 10
360 13 23 35 26 26 3z m6644 -369 c0 -265 -3 -336 -12 -332 -10 3 -13 82 -15
344 -1 186 -5 348 -9 359 -5 13 -1 11 14 -8 22 -26 22 -33 22 -363z m-6280
340 c16 -19 0 -19 -26 0 -16 12 -16 14 -3 15 9 0 22 -7 29 -15z m5905 5 c3 -5
-3 -10 -14 -10 -12 0 -21 5 -21 10 0 6 6 10 14 10 8 0 18 -4 21 -10z m-6455
-38 l75 -28 3 -87 c1 -48 -1 -87 -6 -87 -4 0 -39 11 -78 23 l-69 24 -3 91 c-1
51 -1 92 0 92 2 0 37 -13 78 -28z m4070 18 c10 -6 11 -10 3 -10 -7 0 -15 -11
-19 -25 -9 -35 -34 -32 -34 4 0 25 9 37 30 40 3 0 12 -4 20 -9z m2990 -79 l0
-89 -67 -23 c-38 -12 -74 -24 -80 -27 -17 -6 -18 164 -2 174 14 8 130 52 142
53 4 1 7 -39 7 -88z m-5881 44 c19 -6 22 -12 17 -37 -4 -21 -2 -28 7 -25 6 2
11 14 10 26 -2 11 3 21 10 21 15 0 244 -58 277 -70 14 -5 78 -25 143 -45 l117
-36 0 -310 c0 -211 -3 -309 -11 -309 -5 0 -7 5 -4 10 3 6 -1 10 -9 10 -13 0
-15 34 -16 237 0 203 -3 243 -18 273 -14 29 -23 36 -53 38 -26 2 -40 -3 -55
-19 -18 -20 -19 -34 -16 -230 3 -176 2 -209 -10 -209 -8 0 -15 -6 -15 -14 0
-8 6 -12 12 -9 7 2 15 -3 18 -11 4 -10 1 -13 -9 -9 -8 3 -14 -1 -14 -11 0 -9
-4 -16 -10 -16 -5 0 -10 6 -10 14 0 17 -43 26 -124 26 -44 0 -57 3 -46 10 8 6
49 10 90 9 l75 -2 3 221 c2 207 1 225 -18 262 -25 48 -61 66 -101 50 -45 -19
-49 -44 -49 -287 0 -196 -2 -224 -15 -219 -8 3 -15 1 -15 -4 0 -6 -4 -10 -10
-10 -6 0 -10 83 -10 229 0 237 -4 268 -42 309 -40 42 -118 16 -118 -40 0 -19
-2 -20 -10 -8 -5 8 -7 24 -4 35 4 15 1 14 -10 -5 -14 -23 -15 -19 -16 73 0
107 -5 100 59 82z m3556 -32 c-4 -27 -11 -52 -17 -58 -7 -7 -9 0 -4 23 4 24 2
32 -7 30 -6 -3 -15 -22 -18 -44 -6 -38 -6 -37 -8 13 -1 47 2 54 27 67 15 8 29
15 31 16 2 0 0 -21 -4 -47z m1118 26 c-3 -11 -9 -17 -12 -12 -9 12 -41 13 -41
1 0 -6 -9 -8 -20 -5 -11 3 -22 1 -25 -4 -9 -14 14 -49 33 -50 10 0 12 -3 5 -6
-7 -2 -13 -9 -13 -15 0 -6 7 -7 16 -4 8 3 12 2 9 -4 -3 -6 -25 -10 -49 -10
-34 0 -48 -6 -72 -31 l-29 -30 0 -225 c0 -123 -2 -224 -5 -224 -4 0 -11 5 -17
11 -8 8 -13 7 -18 -2 -5 -8 -4 -10 3 -5 19 11 14 -26 -6 -50 -24 -30 -157 -42
-184 -17 -17 15 -18 15 -18 -5 0 -12 -11 -32 -25 -46 -14 -14 -25 -31 -26 -38
0 -10 -2 -10 -6 0 -3 7 5 24 16 36 21 23 22 32 23 261 1 220 -1 239 -18 252
-31 22 -80 16 -103 -13 -20 -25 -21 -39 -21 -260 0 -195 -2 -234 -14 -234 -8
0 -17 -6 -19 -12 -3 -7 -6 48 -6 122 -1 74 -4 205 -8 291 l-6 157 29 15 c16 8
45 18 64 22 19 4 82 22 140 41 86 27 397 111 422 113 3 1 4 -8 1 -20z m-3564
-2 c13 -16 -7 -99 -24 -98 -5 0 -11 26 -13 56 -2 57 11 72 37 42z m-1971 -35
c-1 -15 2 -37 6 -49 6 -18 4 -23 -11 -23 -42 0 -56 47 -27 88 19 28 35 20 32
-16z m6010 -234 c-1 -150 -4 -232 -5 -181 l-4 91 -44 0 -44 -1 -4 -41 c-2 -23
-4 -5 -5 38 -2 66 0 77 11 64 6 -9 29 -18 50 -20 l37 -4 0 163 c0 90 2 163 5
163 3 0 4 -123 3 -272z m-2476 243 c34 -5 44 -10 46 -27 2 -14 -3 -23 -15 -26
-23 -6 -45 1 -37 13 9 15 -6 10 -23 -7 -9 -9 -25 -13 -38 -10 -12 3 -180 6
-373 6 l-352 1 0 30 0 29 374 -2 c206 -1 394 -4 418 -7z m2691 -97 l2 -89 -64
-17 c-35 -9 -68 -15 -73 -12 -4 3 -8 43 -8 89 l0 84 58 16 c31 9 62 18 67 19
16 5 16 3 18 -90z m-6033 75 c27 -6 50 -11 51 -12 0 -1 3 -44 6 -94 6 -106 7
-105 -82 -74 l-50 18 -3 86 c-3 98 -7 94 78 76z m1605 -70 c121 -39 232 -78
248 -86 l27 -14 0 -164 c0 -125 -3 -165 -12 -165 -10 0 -14 38 -16 148 -2 81
-7 151 -11 155 -5 5 -24 10 -42 10 -53 3 -61 -23 -54 -180 6 -153 7 -153 -89
-153 l-56 0 0 163 c0 89 -3 172 -6 184 -8 28 -41 50 -94 62 -33 7 -44 6 -63
-9 -21 -18 -22 -22 -19 -188 2 -94 1 -180 -3 -191 -4 -14 -15 -21 -31 -21
l-25 0 3 103 c1 56 1 172 0 257 -2 85 -3 158 -2 162 0 4 6 6 13 3 6 -2 111
-36 232 -76z m825 61 c0 -13 -5 -18 -15 -14 -8 4 -15 10 -15 16 0 5 5 6 10 3
6 -3 10 -1 10 4 0 6 2 11 5 11 3 0 5 -9 5 -20z m2155 -127 c-5 -41 -9 -51 -22
-46 -8 3 -19 0 -24 -8 -6 -10 -9 -5 -9 17 0 71 -64 90 -139 41 l-41 -27 0
-180 0 -180 -59 0 c-95 0 -91 -7 -91 150 0 76 -5 151 -10 166 -9 23 -14 26
-42 20 -18 -3 -37 -11 -42 -16 -6 -6 -12 -75 -14 -153 -6 -205 -22 -197 -22
10 0 118 4 174 11 179 7 4 123 44 258 90 l246 83 3 -47 c2 -26 1 -70 -3 -99z
m1535 107 c0 -22 -3 -40 -8 -40 -4 0 -6 18 -4 40 2 22 6 40 8 40 2 0 4 -18 4
-40z m-2380 -16 c0 -2 -11 -3 -24 -2 -14 1 -23 5 -20 9 4 7 44 0 44 -7z
m-1679 -23 c139 -47 217 -82 223 -98 10 -25 3 -25 -50 0 -27 13 -97 43 -156
67 -60 23 -108 47 -108 51 0 12 -5 13 91 -20z m1461 4 c3 -14 1 -25 -3 -25 -5
0 -9 11 -9 25 0 14 2 25 4 25 2 0 6 -11 8 -25z m452 6 c-5 -4 -54 -25 -109
-46 -55 -21 -121 -48 -147 -61 -57 -29 -58 -29 -58 -6 0 13 29 29 118 65 144
57 229 78 196 48z m2211 -1 c-3 -5 -17 -10 -31 -10 -14 0 -22 4 -19 10 3 6 17
10 31 10 14 0 22 -4 19 -10z m-3759 -16 c18 -15 18 -15 -6 -10 -14 3 -29 6
-33 6 -5 0 -5 5 -2 10 9 14 18 13 41 -6z m3212 -349 c-3 -312 -4 -335 -20
-335 -17 0 -18 21 -18 323 0 318 3 347 32 347 5 0 7 -151 6 -335z m-5304 319
c14 -5 16 -44 16 -330 0 -317 0 -324 -20 -324 -20 0 -20 7 -20 330 0 182 2
330 4 330 2 0 11 -3 20 -6z m2379 -44 c11 -13 29 -20 51 -20 19 0 37 -4 40 -9
7 -11 -126 -20 -134 -9 -3 4 -12 3 -20 -2 -8 -6 -34 -10 -56 -10 -45 0 -60 16
-49 51 5 16 17 19 78 19 60 0 75 -3 90 -20z m199 11 c-10 -6 -8 -10 9 -14 43
-12 13 -17 -47 -8 -32 5 -48 10 -34 11 l25 2 -25 8 c-19 6 -12 8 30 9 34 0 50
-3 42 -8z m131 2 c-13 -2 -33 -2 -45 0 -13 2 -3 4 22 4 25 0 35 -2 23 -4z
m357 -3 c0 -5 -6 -10 -12 -10 -9 0 -8 -4 2 -10 11 -8 8 -9 -12 -4 -17 4 -28 2
-28 -5 0 -12 -62 -10 -72 3 -4 6 -13 4 -22 -3 -9 -7 -24 -11 -35 -8 -10 2 -26
0 -36 -5 -12 -8 -20 -6 -26 3 -5 9 -3 16 9 21 12 5 9 7 -11 7 -16 1 -26 5 -23
10 8 13 266 14 266 1z m427 -6 c-3 -3 -12 -4 -19 -1 -8 3 -5 6 6 6 11 1 17 -2
13 -5z m-1040 -10 c-3 -3 -12 -4 -19 -1 -8 3 -5 6 6 6 11 1 17 -2 13 -5z
m-619 -60 c4 -4 -2 -4 -13 0 -11 5 -46 11 -77 15 l-58 7 -2 -75 c-2 -42 -2
-104 0 -139 1 -35 -2 -71 -7 -80 -7 -12 -10 36 -11 154 l0 172 81 -23 c44 -13
83 -26 87 -31z m-661 -132 c3 -109 1 -162 -6 -162 -7 0 -11 52 -11 149 0 82
-3 157 -7 167 -4 11 -2 15 7 12 10 -3 14 -44 17 -166z m2413 152 c0 -2 -7 -4
-15 -4 -8 0 -15 4 -15 10 0 5 7 7 15 4 8 -4 15 -8 15 -10z m30 -150 c0 -96 -4
-154 -10 -154 -6 0 -10 60 -10 161 0 104 3 158 10 154 6 -4 10 -68 10 -161z
m530 152 c0 -8 -6 -16 -12 -19 -10 -3 -12 -40 -10 -150 2 -97 -1 -147 -8 -147
-11 0 -15 312 -3 323 12 12 33 7 33 -7z m-613 -14 c-16 -3 -17 -14 -11 -133 5
-94 4 -129 -5 -129 -8 0 -11 37 -11 125 0 129 -2 135 -41 115 -23 -13 -25 -4
-4 16 8 9 19 12 25 9 5 -3 10 -2 10 3 0 5 12 7 28 4 19 -4 22 -7 9 -10z
m-4062 -38 c0 -32 -3 -39 -20 -39 -17 0 -19 6 -17 35 5 42 10 52 25 47 6 -2
11 -21 12 -43z m1153 24 c4 -13 6 -83 4 -156 -3 -119 -5 -133 -20 -130 -25 5
-30 95 -6 112 15 12 15 13 0 19 -23 9 -24 177 -1 177 9 0 19 -10 23 -22z
m5218 7 c9 -23 -5 -65 -21 -65 -11 0 -15 11 -15 40 0 29 4 40 15 40 9 0 18 -7
21 -15z m-3908 -32 c9 -4 12 -42 12 -144 l0 -139 -59 0 c-33 0 -63 5 -66 10
-3 6 0 10 7 11 7 0 31 1 53 2 l40 2 3 105 c3 127 -1 148 -33 156 -13 3 -30 13
-37 21 -10 12 -5 12 27 -2 22 -9 46 -19 53 -22z m-165 -105 c2 -65 0 -118 -4
-118 -5 0 -9 57 -8 128 1 153 6 149 12 -10z m1475 121 c-3 -10 -119 -61 -125
-55 -7 7 27 28 74 46 58 23 55 22 51 9z m189 -127 c2 -87 -1 -130 -7 -117 -10
24 -13 255 -2 255 4 0 8 -62 9 -138z m-1330 111 c52 -16 70 -33 36 -33 -22 0
-123 48 -104 49 8 1 38 -7 68 -16z m1275 -1 l-33 -16 3 -120 3 -121 92 0 c51
-1 96 -5 100 -9 5 -4 -20 -6 -55 -4 -34 1 -62 0 -62 -4 0 -5 -20 -8 -44 -8
-31 0 -46 5 -50 16 -3 9 -6 70 -6 137 0 117 1 123 23 133 12 7 31 12 42 12 14
1 11 -4 -13 -16z m-4152 -22 c0 -20 -5 -30 -15 -30 -10 0 -15 10 -15 30 0 20
5 30 15 30 10 0 15 -10 15 -30z m2630 -95 c0 -65 -4 -116 -10 -120 -6 -4 -10
38 -10 120 0 82 4 124 10 120 6 -4 10 -55 10 -120z m238 61 c40 -14 52 -22 52
-38 0 -19 -2 -20 -17 -6 -10 9 -39 25 -65 36 -27 12 -48 24 -48 28 0 3 6 4 13
2 6 -3 36 -13 65 -22z m406 8 c12 -12 16 -12 16 -2 0 10 3 9 10 -2 9 -13 10
-13 10 0 0 13 1 13 10 0 6 -10 10 -11 10 -2 0 6 8 12 18 12 14 0 15 -2 2 -10
-11 -7 -3 -10 30 -11 28 -1 36 -3 20 -6 -14 -3 -31 -10 -39 -16 -11 -9 -15 -9
-18 1 -3 7 -23 12 -51 12 -34 0 -43 3 -32 10 12 8 10 10 -8 10 -13 0 -21 -4
-18 -9 3 -5 -10 -11 -30 -13 -37 -4 -49 4 -40 27 8 21 90 20 110 -1z m343 1
c-4 -8 -2 -17 3 -20 22 -13 8 -25 -27 -24 -35 0 -36 1 -15 11 15 8 21 17 16
30 -4 12 0 18 11 18 11 0 15 -5 12 -15z m43 -11 c0 -14 -4 -23 -10 -19 -5 3
-10 15 -10 26 0 10 5 19 10 19 6 0 10 -12 10 -26z m370 18 c0 -5 -17 -14 -38
-20 -20 -6 -46 -19 -57 -27 -20 -16 -19 -16 4 -11 l23 5 -21 -20 c-18 -17 -21
-32 -23 -107 l-2 -87 -5 110 c-4 61 -3 114 1 119 4 5 31 17 60 27 63 22 58 21
58 11z m-450 -17 c0 -11 -12 -15 -50 -15 -44 0 -49 2 -38 15 18 20 88 20 88 0z
m176 -10 c-3 -8 1 -18 9 -22 12 -7 12 -17 -1 -72 -10 -45 -11 -67 -4 -76 8 -9
8 -15 0 -20 -5 -3 -10 -15 -10 -26 0 -11 -4 -17 -10 -14 -13 8 -13 71 1 97 9
16 8 19 -3 16 -17 -6 -25 -46 -27 -125 -1 -57 1 -63 19 -63 11 0 20 -4 20 -10
0 -5 -9 -10 -19 -10 -14 0 -18 -5 -14 -19 3 -11 -2 -21 -11 -24 -14 -6 -16 10
-16 127 l0 134 30 11 c32 11 35 19 21 68 -9 31 -6 43 12 43 5 0 7 -7 3 -15z
m260 -103 c-11 -10 -12 3 -7 58 l6 55 3 -54 c2 -29 1 -56 -2 -59z m-1186 84
c0 -3 -4 -8 -10 -11 -5 -3 -10 -1 -10 4 0 6 5 11 10 11 6 0 10 -2 10 -4z
m-2895 -31 c76 -9 76 -10 73 -110 l-3 -89 -70 3 c-40 1 -73 8 -77 14 -4 7 -8
54 -8 105 0 84 2 93 18 88 9 -2 40 -7 67 -11z m2951 7 c16 -11 24 -64 17 -121
-5 -41 -8 -49 -19 -40 -7 6 -17 8 -22 5 -13 -8 -25 40 -16 66 4 13 12 18 25
15 25 -7 24 9 -1 23 -19 10 -27 40 -13 53 8 9 15 9 29 -1z m4104 -74 c0 -130
1 -128 -86 -128 l-74 0 0 89 0 90 53 10 c28 5 61 12 72 14 11 3 23 5 28 6 4 0
7 -36 7 -81z m-3913 66 c-3 -3 -12 -4 -19 -1 -8 3 -5 6 6 6 11 1 17 -2 13 -5z
m3519 -16 c44 3 55 1 52 -10 -3 -8 -24 -14 -54 -16 -27 -2 -52 -9 -56 -15 -4
-7 -7 6 -7 28 1 22 3 33 5 25 4 -12 17 -14 60 -12z m-1619 -70 c-2 -18 -4 -6
-4 27 0 33 2 48 4 33 2 -15 2 -42 0 -60z m-4719 50 c-3 -7 -21 -14 -41 -16
-28 -2 -37 1 -37 12 0 12 11 16 41 16 28 0 39 -4 37 -12z m236 -60 c12 -114
15 -108 -58 -108 l-63 0 -7 46 c-7 53 -8 119 -2 125 2 2 31 3 64 1 l59 -4 7
-60z m186 33 l0 -40 -31 11 c-53 18 -53 68 1 68 28 0 30 -2 30 -39z m2434 18
c26 -20 26 -22 26 -154 l0 -133 -30 28 c-37 34 -37 38 -3 42 25 3 26 4 10 20
-19 18 -23 43 -7 33 7 -5 10 19 8 72 -2 63 -6 78 -20 81 -14 3 -16 -5 -15 -52
1 -30 5 -58 9 -62 4 -4 5 -11 2 -15 -12 -20 -19 -6 -22 39 -1 26 -5 64 -8 85
-7 44 8 49 50 16z m3356 -69 l0 -91 -67 3 -68 3 -3 77 c-3 86 -6 83 78 91 19
2 41 5 48 5 9 2 12 -22 12 -88z m-230 75 c0 -11 -41 -45 -55 -45 -7 0 -19 -8
-24 -17 -8 -14 -10 -9 -11 25 l0 42 45 0 c25 0 45 -2 45 -5z m-2660 -65 c0
-28 -2 -30 -39 -30 -23 0 -41 5 -44 13 -3 9 -11 9 -35 1 -17 -7 -34 -8 -39 -4
-4 5 -43 11 -85 15 -72 7 -78 6 -78 -11 0 -16 -2 -17 -10 -4 -9 13 -11 13 -20
0 -7 -12 -10 -8 -10 16 0 17 2 33 4 35 2 2 83 3 180 1 l176 -3 0 -29z m405 21
c-3 -6 -11 -8 -17 -5 -6 4 -5 9 3 15 16 10 23 4 14 -10z m-3408 -63 c-3 -7 -5
-2 -5 12 0 14 2 19 5 13 2 -7 2 -19 0 -25z m1900 -4 c-3 -3 -12 -4 -19 -1 -8
3 -5 6 6 6 11 1 17 -2 13 -5z m1880 0 c-3 -3 -12 -4 -19 -1 -8 3 -5 6 6 6 11
1 17 -2 13 -5z m-567 -14 c0 -5 -4 -10 -9 -10 -6 0 -13 5 -16 10 -3 6 1 10 9
10 9 0 16 -4 16 -10z m-2389 -41 c11 -5 17 -14 15 -18 -8 -13 -66 0 -66 15 0
17 24 18 51 3z m3587 -5 c118 -13 27 -22 -218 -22 -234 0 -260 2 -260 17 0 14
22 16 212 13 117 -1 237 -5 266 -8z m1189 -46 c-2 -13 -4 -3 -4 22 0 25 2 35
4 23 2 -13 2 -33 0 -45z m-4972 42 c4 -6 -10 -10 -34 -10 -22 0 -43 5 -46 10
-4 6 10 10 34 10 22 0 43 -4 46 -10z m1115 -4 c0 -12 -44 -14 -265 -15 -228
-1 -265 1 -265 14 0 13 37 15 265 15 222 0 265 -2 265 -14z m3385 4 c-3 -5
-22 -10 -41 -10 -19 0 -34 5 -34 10 0 6 18 10 41 10 24 0 38 -4 34 -10z
m-5128 -32 c-3 -7 -5 -2 -5 12 0 14 2 19 5 13 2 -7 2 -19 0 -25z m5007 16 c3
-8 2 -12 -4 -9 -6 3 -10 10 -10 16 0 14 7 11 14 -7z m-3010 -38 c50 -53 116
-142 116 -156 0 -5 -7 -10 -15 -10 -35 0 -63 26 -98 90 -41 76 -60 87 -122 76
-27 -5 -35 -4 -35 8 0 21 29 35 74 36 33 0 45 -6 80 -44z m156 29 c0 -12 -13
-15 -59 -15 -43 0 -60 4 -65 15 -4 12 6 15 59 15 51 0 65 -3 65 -15z m1480 1
c0 -18 -22 -26 -71 -26 -32 0 -39 3 -39 20 0 18 7 20 55 20 40 0 55 -4 55 -14z
m182 -3 c27 -24 23 -28 -33 -30 -28 -1 -58 -4 -65 -7 -8 -3 -25 -31 -39 -63
-33 -73 -51 -93 -87 -93 -35 0 -38 28 -7 56 12 10 29 35 39 55 31 59 84 99
132 99 25 0 49 -7 60 -17z m-1515 -15 c11 -13 31 -43 43 -68 13 -25 30 -50 39
-57 9 -6 12 -15 8 -19 -4 -5 -11 -4 -15 1 -14 20 -50 33 -105 40 -39 5 -57 12
-57 21 0 8 7 14 15 14 8 0 15 7 15 15 0 8 7 15 15 15 18 0 19 -5 4 -32 -10
-19 -9 -20 17 -14 40 10 41 13 17 44 -16 20 -29 27 -52 26 -33 -2 -38 5 -19
24 19 19 53 14 75 -10z m123 1 c0 -5 9 -22 19 -37 24 -32 31 -84 14 -89 -8 -3
-12 4 -11 20 1 14 -6 41 -17 61 -18 33 -20 34 -37 19 -24 -21 -25 3 -2 28 16
18 34 17 34 -2z m1026 4 c17 -17 16 -18 -20 -21 -32 -3 -40 -8 -51 -36 -12
-27 -65 -68 -65 -49 0 10 62 108 74 115 19 13 44 9 62 -9z m2231 -5 c-3 -8 -6
-5 -6 6 -1 11 2 17 5 13 3 -3 4 -12 1 -19z m-2393 -10 c9 -35 8 -38 -16 -35
-24 4 -33 20 -24 42 8 23 33 18 40 -7z m-3729 -47 l0 -43 -80 -29 c-74 -27
-89 -29 -200 -27 -113 3 -120 4 -118 23 6 48 11 59 28 65 17 6 17 7 2 13 -9 3
-17 16 -17 27 0 20 4 20 193 18 l192 -3 0 -44z m472 36 c13 -6 23 -17 24 -26
0 -12 3 -11 9 4 7 17 9 17 9 3 1 -26 19 -22 24 5 3 12 4 -7 3 -43 l-1 -65 -53
-3 c-33 -2 -79 4 -120 17 -90 27 -150 40 -189 41 -27 0 -30 3 -25 22 4 17 2
20 -12 15 -9 -4 -14 -3 -11 2 3 5 1 12 -5 16 -6 4 -8 11 -4 16 8 13 322 10
351 -4z m653 3 c0 -5 -6 -9 -12 -7 -7 1 -12 -6 -10 -15 2 -10 -2 -18 -8 -18
-5 0 -10 11 -10 25 0 18 5 25 20 25 11 0 20 -4 20 -10z m5328 -17 c3 -20 -1
-23 -32 -23 -35 0 -36 -1 -36 -39 0 -22 5 -42 13 -44 6 -3 -75 -6 -180 -6
-163 -1 -193 1 -193 14 0 8 6 12 14 9 16 -6 49 21 59 46 4 12 6 11 6 -2 1 -10
5 -18 11 -18 5 0 6 8 3 17 -5 12 -2 15 10 10 9 -3 17 -2 17 4 0 5 -7 12 -15
15 -11 5 -12 11 -4 25 9 18 21 19 167 17 154 -3 157 -3 160 -25z m501 0 c-1
-16 2 -50 7 -77 7 -48 7 -49 -17 -43 -13 4 -104 7 -201 7 l-178 0 0 49 c0 28
-5 53 -10 56 -8 5 -7 11 1 21 9 11 51 14 205 14 l194 0 -1 -27z m-4585 -42
c14 -26 14 -30 0 -35 -8 -3 -17 1 -20 9 -4 9 -16 13 -36 11 l-29 -4 22 24 c30
32 45 30 63 -5z m206 9 c0 -11 -6 -20 -14 -20 -18 0 -29 16 -21 30 11 18 35
11 35 -10z m1293 -6 c-4 -11 0 -15 12 -12 10 2 20 -3 22 -9 3 -8 -5 -13 -21
-13 -14 0 -26 4 -26 10 0 5 -7 7 -15 4 -20 -8 -19 5 1 27 19 21 36 16 27 -7z
m-183 -3 c0 -11 5 -23 10 -26 15 -9 12 -25 -4 -25 -21 0 -38 27 -31 50 8 25
25 26 25 1z m320 12 c-8 -4 -20 -13 -27 -22 -11 -15 -12 -15 -13 0 0 21 9 29
34 28 15 0 17 -2 6 -6z m234 1 c9 -3 13 -10 10 -15 -3 -5 2 -6 10 -3 16 6 42
-31 27 -40 -13 -8 -54 2 -63 16 -4 7 -8 9 -8 4 0 -6 -5 -5 -11 1 -13 13 -5 43
10 43 5 0 16 -3 25 -6z m-4157 -20 c-3 -3 -12 -4 -19 -1 -8 3 -5 6 6 6 11 1
17 -2 13 -5z m3500 -19 c-4 -8 -11 -15 -17 -15 -14 0 -13 27 3 33 16 6 21 1
14 -18z m955 -4 c121 -20 138 -25 138 -43 0 -7 -31 -8 -97 -3 -54 5 -108 7
-119 7 -12 -1 -27 5 -34 13 -25 30 -40 17 -40 -35 l0 -50 45 0 c50 0 52 -2 30
-27 -70 -80 -67 -67 -64 -250 2 -151 1 -168 -14 -171 -16 -3 -17 21 -17 293
l0 297 28 -6 c15 -4 80 -15 144 -25z m-2343 -266 c2 -270 1 -285 -16 -285 -17
0 -18 13 -18 173 l0 173 -39 39 -38 40 46 9 47 10 -3 45 c-3 40 -6 46 -23 43
-11 -2 -54 -9 -95 -17 -121 -21 -175 -23 -175 -5 0 11 30 20 125 36 69 12 139
22 155 23 l31 1 3 -285z m671 269 c0 -14 -3 -14 -15 -4 -8 7 -15 14 -15 16 0
2 7 4 15 4 8 0 15 -7 15 -16z m2165 6 c3 -5 1 -10 -4 -10 -6 0 -11 5 -11 10 0
6 2 10 4 10 3 0 8 -4 11 -10z m-2758 -22 c-3 -8 -6 -5 -6 6 -1 11 2 17 5 13 3
-3 4 -12 1 -19z m733 12 c0 -5 -9 -10 -20 -10 -11 0 -20 5 -20 10 0 6 9 10 20
10 11 0 20 -4 20 -10z m1132 -22 c-7 -7 -12 -8 -12 -2 0 14 12 26 19 19 2 -3
-1 -11 -7 -17z m-1692 -48 c0 -5 -14 -17 -31 -26 -17 -8 -28 -11 -25 -5 4 6 1
11 -6 12 -10 0 -10 2 1 6 11 4 11 7 0 13 -10 7 -10 14 -1 35 l13 27 24 -26
c14 -15 25 -31 25 -36z m330 30 c11 -11 20 -30 20 -42 -1 -22 -1 -22 -21 5
-23 31 -40 28 -32 -6 l5 -22 -21 24 c-21 23 -22 23 -41 6 -11 -10 -23 -16 -26
-12 -5 4 81 66 94 67 1 0 11 -9 22 -20z m220 -4 c0 -29 -9 -56 -19 -56 -4 0
-7 18 -8 40 -2 29 2 40 13 40 8 0 14 -10 14 -24z m596 -20 c5 -22 4 -28 -7
-24 -8 2 -15 20 -17 39 -4 40 13 30 24 -15z m234 24 c0 -12 -10 -24 -24 -30
-13 -5 -26 -17 -29 -27 -3 -10 -5 -2 -6 18 -1 38 13 59 41 59 11 0 18 -7 18
-20z m-437 -8 c23 -19 510 -828 730 -1212 55 -96 184 -319 287 -495 224 -383
270 -464 270 -475 0 -7 -82 -60 -93 -60 -3 0 -19 28 -36 63 -17 34 -47 89 -67
122 -55 91 -64 107 -159 285 -48 91 -116 217 -150 280 -35 63 -77 144 -95 180
-18 35 -43 82 -57 103 -13 21 -49 88 -80 148 -38 76 -59 106 -64 97 -7 -10 -9
-10 -10 2 0 10 -3 8 -9 -5 -7 -16 -9 -16 -9 -4 -1 11 -13 19 -35 23 -46 9
-145 5 -152 -6 -3 -4 -14 -8 -25 -8 -11 0 -17 5 -14 10 3 6 1 10 -5 10 -7 0
-9 -8 -5 -20 6 -18 2 -20 -33 -20 -23 0 -45 -6 -52 -15 -8 -10 -30 -15 -65
-15 -44 0 -54 3 -58 20 -3 11 0 20 6 20 6 0 8 2 5 5 -3 3 -17 0 -32 -6 -17 -8
-26 -20 -26 -36 0 -15 -4 -22 -11 -18 -6 4 -8 14 -5 22 3 8 2 12 -3 8 -5 -3
-11 1 -14 7 -3 7 -5 -2 -4 -19 0 -18 5 -33 11 -33 8 0 8 -3 1 -8 -6 -4 -11
-38 -12 -77 0 -38 -1 -92 -2 -118 l-1 -48 -37 3 -38 3 -3 116 c-2 101 -5 119
-22 134 -20 18 -28 41 -11 31 5 -3 12 1 15 10 4 10 2 13 -6 8 -6 -4 -16 0 -22
9 -9 11 -34 16 -99 19 -63 2 -86 6 -83 15 7 16 -105 21 -208 9 -69 -9 -80 -8
-91 7 -11 15 -14 13 -31 -20 -10 -20 -33 -61 -51 -91 -18 -30 -30 -59 -27 -63
3 -5 1 -9 -4 -9 -4 0 -19 -19 -31 -42 -13 -24 -78 -146 -146 -273 -191 -358
-309 -575 -345 -635 -18 -30 -46 -81 -62 -112 -15 -32 -32 -58 -38 -58 -16 0
-100 43 -100 52 0 11 58 113 141 248 25 41 87 147 138 235 174 299 209 360
526 900 337 573 461 782 478 804 15 17 207 12 230 -7z m760 0 c-3 -12 2 -18
15 -19 16 -1 19 3 14 20 -5 22 -5 22 16 -1 18 -20 19 -28 9 -49 -10 -23 -12
-24 -24 -7 -7 10 -13 15 -13 11 0 -3 -14 -1 -31 5 -29 10 -39 43 -12 43 6 0
15 3 19 8 11 11 13 9 7 -11z m-2023 -1 c0 -5 -12 -12 -27 -15 -30 -8 -173 -23
-173 -19 0 11 55 27 114 33 39 4 74 8 79 9 4 0 7 -3 7 -8z m-245 -111 c36 -55
72 -114 80 -130 14 -27 14 -30 0 -30 -9 0 -25 4 -35 10 -14 7 -20 6 -24 -7 -4
-9 -9 -13 -12 -10 -3 3 -24 -1 -46 -9 -48 -17 -48 -17 -48 -4 0 6 6 10 14 10
8 0 18 4 21 10 4 6 -1 7 -12 3 -15 -5 -16 -3 -6 7 10 11 10 17 -2 29 -7 9 -16
29 -19 45 -5 30 -16 48 -16 28 0 -27 -20 -9 -29 26 -9 32 -14 37 -43 39 -22 2
-41 12 -57 30 l-25 28 80 11 c43 6 87 12 96 13 12 1 39 -32 83 -99z m3003 84
c53 -6 53 -6 35 -26 -23 -25 -79 -66 -69 -50 4 8 1 12 -10 12 -10 0 -14 -3
-11 -6 8 -9 -49 -117 -79 -149 -20 -22 -28 -24 -73 -18 -34 4 -56 2 -66 -7 -9
-7 -18 -10 -21 -7 -7 7 27 71 99 183 l52 81 45 -4 c25 -2 69 -6 98 -9z m-4524
-33 c92 -45 175 -148 176 -218 0 -19 6 -23 32 -23 77 0 172 -79 203 -169 9
-25 19 -83 22 -128 l6 -83 -63 0 c-51 0 -61 3 -56 15 4 12 0 14 -18 11 -18 -3
-26 2 -36 22 -27 61 -118 160 -95 105 15 -37 17 -53 6 -53 -5 0 -8 6 -6 13 3
6 0 19 -5 27 -9 13 -11 13 -20 0 -14 -21 -12 -33 3 -24 6 4 9 4 5 0 -15 -17
-22 -9 -24 23 -1 22 1 29 7 20 6 -10 9 -10 9 -2 0 15 -34 34 -52 29 -7 -2 -26
-7 -43 -10 -28 -6 -29 -5 -11 9 23 17 18 19 -19 5 -17 -7 -24 -7 -20 0 10 16
-68 12 -110 -5 -20 -9 -65 -19 -101 -22 -61 -6 -64 -5 -64 16 0 11 -4 21 -10
21 -5 0 -10 -7 -10 -14 0 -12 -6 -13 -30 -5 -17 6 -30 18 -30 27 0 15 -2 15
-10 2 -8 -12 -12 -13 -19 -2 -4 8 -12 13 -17 13 -15 -2 -44 28 -44 44 0 9 -4
14 -9 11 -15 -10 -45 84 -45 139 0 48 21 121 32 110 9 -9 31 16 25 31 -3 9 5
18 23 24 20 8 25 13 15 19 -15 10 31 25 64 22 16 -1 17 0 6 8 -24 16 65 30
171 27 86 -3 105 -7 162 -35z m2528 -13 l-9 -33 -8 28 c-5 18 -3 33 6 43 17
21 22 4 11 -38z m808 22 c0 -10 -5 -22 -10 -25 -13 -8 -24 20 -16 41 8 20 26
9 26 -16z m-2160 -1 c7 -11 10 -22 8 -24 -4 -3 -500 -25 -570 -25 -36 0 -48 4
-48 15 0 8 -7 15 -15 15 -8 0 -15 4 -15 8 0 4 55 10 123 11 150 4 489 17 499
19 4 1 12 -7 18 -19z m4108 -2 c15 0 15 -9 -1 -31 -12 -16 -30 -17 -320 -5
-291 12 -307 14 -307 32 0 19 9 19 308 12 169 -5 313 -8 320 -8z m-3140 -6 c8
-5 12 -22 10 -42 -3 -29 -7 -34 -40 -42 -32 -8 -40 -6 -65 17 -27 25 -26 50 1
27 16 -13 52 -1 50 16 -4 28 18 41 44 24z m1512 2 c0 -5 -12 -32 -27 -61 -31
-60 -23 -78 27 -60 20 7 38 5 65 -6 34 -14 37 -19 30 -43 -4 -16 -7 -28 -8
-29 -1 0 -21 1 -45 4 -36 3 -43 8 -49 31 l-7 26 -6 -24 c-16 -67 -57 0 -46 76
7 53 29 93 51 93 8 0 15 -3 15 -7z m121 -10 c16 -10 29 -20 29 -23 0 -3 -10
-18 -23 -33 -22 -28 -25 -28 -63 -18 -37 10 -41 14 -37 39 3 15 6 33 8 40 6
17 52 15 86 -5z m-3402 -22 c18 -24 21 -44 21 -120 l0 -91 -37 22 c-21 12 -55
30 -75 40 -29 14 -40 27 -47 56 -6 21 -24 51 -41 67 -16 16 -30 32 -30 36 0 5
37 10 83 12 45 1 87 4 94 5 6 1 21 -11 32 -27z m1855 7 c23 -32 22 -153 0
-162 -20 -8 -20 -9 -27 32 -6 27 -4 32 13 32 29 0 25 24 -10 63 -16 19 -30 40
-30 46 0 20 38 12 54 -11z m396 15 c0 -5 -13 -17 -28 -27 l-27 -19 24 26 c26
28 31 32 31 20z m606 -47 c32 -30 63 -54 69 -53 5 1 9 -3 8 -10 -3 -14 52 -34
72 -27 8 4 15 1 15 -5 0 -13 -44 -25 -70 -18 -11 3 -20 2 -20 -3 0 -4 19 -13
43 -18 24 -6 52 -21 63 -33 l19 -22 -27 5 c-16 3 -28 1 -28 -3 0 -15 49 -22
105 -15 l53 6 7 -33 c13 -63 16 -67 61 -78 29 -8 42 -15 36 -21 -6 -6 -18 -5
-33 3 -22 11 -23 11 -10 -4 7 -10 19 -17 27 -17 7 0 19 -10 25 -22 7 -13 15
-25 18 -28 3 -3 14 -23 24 -44 13 -28 14 -37 5 -30 -8 5 -1 -2 16 -16 16 -14
41 -34 55 -46 l25 -21 -34 -5 c-30 -5 -39 0 -72 35 -21 23 -38 44 -38 48 0 3
-28 36 -62 72 -35 36 -74 79 -88 96 -14 16 -31 30 -38 30 -11 1 -11 -2 0 -14
7 -8 33 -41 58 -74 25 -33 54 -62 65 -65 17 -5 18 -7 5 -16 -12 -8 -5 -19 39
-64 46 -47 52 -57 41 -70 -7 -9 -9 -16 -4 -17 5 -1 16 -2 25 -3 9 0 38 -30 64
-66 74 -101 95 -120 122 -114 17 5 23 2 23 -10 0 -9 -7 -19 -16 -23 -14 -5
-14 -8 4 -17 19 -10 112 -117 112 -128 0 -3 -12 -9 -26 -12 -22 -6 -24 -9 -13
-22 8 -10 21 -13 37 -9 30 7 62 -2 62 -19 0 -8 27 -48 60 -91 33 -43 60 -81
60 -86 0 -4 -10 -10 -22 -12 -18 -3 -16 -5 8 -6 26 -1 41 -15 110 -103 44 -57
95 -124 113 -150 30 -45 35 -48 76 -48 25 0 45 2 45 5 0 8 -163 197 -221 257
-45 47 -46 48 -20 49 14 1 32 1 39 0 16 -2 15 10 -4 37 -10 15 -20 20 -27 14
-15 -12 -43 -8 -62 8 -8 7 -38 43 -67 81 -35 45 -55 64 -60 56 -4 -7 -8 -7 -8
-2 1 6 9 20 20 33 18 22 24 23 98 17 53 -5 82 -4 86 3 10 17 -38 44 -70 38
-16 -2 -33 -5 -37 -5 -5 -1 -5 -5 -2 -11 3 -5 -1 -10 -9 -10 -9 0 -16 4 -16 8
0 4 -15 8 -32 9 -18 1 -25 -1 -15 -4 24 -6 11 -23 -18 -23 -16 0 -37 16 -66
53 -24 28 -52 58 -61 65 -36 27 -17 32 116 32 137 0 160 6 135 36 -11 14 -37
16 -159 14 -80 -2 -150 -2 -156 -1 -11 1 -154 164 -154 174 0 3 16 8 35 11 26
5 39 2 53 -11 44 -42 69 -59 81 -55 9 3 11 0 6 -8 -6 -10 -4 -12 8 -7 9 3 18
1 21 -6 3 -9 8 -8 15 3 9 12 11 10 11 -11 0 -15 9 -37 19 -50 18 -22 21 -23
65 -11 26 6 62 12 81 12 33 0 34 1 25 25 -6 17 -6 25 1 25 6 0 7 5 4 11 -4 6
-12 8 -19 6 -7 -3 -13 4 -13 14 -2 20 8 18 39 -9 10 -8 15 -18 13 -22 -3 -4 3
-11 13 -15 9 -3 17 -5 17 -4 0 2 50 -40 109 -92 23 -19 75 -59 116 -87 41 -28
93 -67 115 -87 22 -19 57 -43 77 -53 21 -10 38 -25 40 -37 2 -12 12 -21 26
-23 12 -2 22 -6 22 -8 0 -14 -37 -74 -66 -107 -19 -20 -34 -43 -34 -51 0 -8
16 -28 36 -46 l36 -31 -25 -57 c-14 -31 -30 -76 -37 -99 -11 -45 -18 -51 -38
-31 -15 15 -16 3 -2 -22 13 -24 -4 -35 -43 -31 -16 1 -43 -4 -60 -12 -18 -8
-51 -14 -74 -13 -39 2 -41 1 -27 -15 11 -13 23 -15 57 -8 42 7 67 -2 67 -25 0
-6 -7 -2 -15 8 -8 11 -18 16 -22 13 -8 -9 29 -38 43 -33 5 2 21 -13 34 -33 13
-20 33 -46 44 -59 18 -20 18 -24 6 -32 -13 -9 -13 -10 0 -11 29 -2 -46 -28
-85 -30 -22 -1 -32 -3 -22 -6 18 -5 24 -33 7 -33 -5 0 -10 5 -10 11 0 5 -4 7
-10 4 -6 -4 -5 -11 3 -20 6 -7 17 -10 22 -6 6 4 41 5 78 2 l69 -6 -60 -42
c-57 -40 -61 -41 -76 -24 -9 10 -16 23 -16 29 0 6 -12 25 -27 43 -16 18 -22
30 -15 25 6 -4 12 -2 12 3 0 6 -6 11 -14 11 -7 0 -37 38 -67 85 -30 47 -84
125 -120 174 -37 50 -97 137 -135 193 -37 57 -110 162 -161 233 -51 72 -107
152 -125 179 -18 27 -45 61 -60 75 -27 24 -39 49 -18 36 6 -3 7 1 3 10 -4 11
-8 13 -13 5 -4 -7 -17 2 -34 25 -15 19 -24 40 -20 47 4 6 3 8 -3 5 -9 -6 -93
101 -93 118 0 3 -12 22 -27 41 -16 18 -27 36 -26 39 1 2 -9 17 -22 31 -33 35
-137 189 -108 159 5 -5 19 -23 31 -39 12 -16 22 -25 22 -21 0 7 -58 85 -71 95
-12 10 -239 352 -239 361 0 14 3 12 66 -45z m3096 25 c179 -3 329 -9 333 -13
4 -4 4 -21 0 -38 -6 -28 -10 -31 -38 -28 -35 3 -33 7 -36 -102 -1 -28 -7 -39
-28 -52 -25 -14 -58 -15 -297 -7 -148 5 -285 13 -305 19 -94 25 -175 29 -251
14 -55 -12 -100 -14 -167 -9 l-92 7 -3 91 c-3 77 0 94 16 115 l19 24 261 -7
c144 -4 408 -10 588 -14z m-4377 -11 c3 -5 2 -10 -4 -10 -5 0 -13 5 -16 10 -3
6 -2 10 4 10 5 0 13 -4 16 -10z m-2585 -30 c-11 -16 -25 -32 -30 -35 -5 -3
-18 -26 -29 -50 -18 -40 -24 -45 -52 -45 l-31 0 6 45 c7 43 6 45 -18 45 -19 0
-26 5 -26 19 0 11 -3 26 -6 35 -5 14 7 16 101 16 l106 0 -21 -30z m3017 8 c-3
-8 -6 -5 -6 6 -1 11 2 17 5 13 3 -3 4 -12 1 -19z m257 -5 c-9 -16 -45 -67 -78
-114 -34 -47 -95 -134 -136 -193 -41 -59 -79 -113 -85 -120 -5 -6 -19 -28 -30
-49 -51 -94 -275 -408 -286 -401 -5 3 -6 -3 -2 -13 3 -10 3 -15 -2 -11 -4 4
-42 -43 -84 -105 -42 -61 -98 -141 -124 -177 -26 -36 -71 -101 -99 -145 -28
-44 -53 -82 -57 -85 -4 -3 -29 -39 -57 -80 -112 -166 -137 -201 -142 -196 -2
3 1 14 9 23 13 16 12 17 -4 4 -10 -8 -15 -21 -13 -28 3 -8 -5 -31 -19 -51 -14
-20 -25 -31 -25 -24 0 18 -27 14 -35 -5 -6 -16 -8 -15 -16 5 -4 12 -14 22 -21
21 -10 0 -10 -2 0 -6 32 -13 5 -23 -65 -23 l-76 0 24 26 c22 23 28 25 90 19
l67 -5 -22 54 c-12 31 -24 49 -28 42 -4 -6 -5 -20 -2 -30 5 -16 4 -17 -9 -5
-13 12 -12 17 2 39 8 14 19 27 22 30 4 3 10 17 14 32 6 24 3 29 -20 38 -37 14
-68 13 -59 -2 6 -9 3 -9 -9 0 -9 8 -26 39 -37 70 -12 32 -33 83 -47 114 l-26
58 37 40 c20 22 36 44 36 48 0 5 -12 19 -26 33 -37 34 -79 119 -60 119 9 0 30
13 48 28 18 16 69 53 113 82 135 91 310 240 283 240 -7 0 -1 8 13 18 113 76
141 93 157 98 11 4 8 -1 -8 -15 -18 -15 -21 -21 -10 -21 9 0 21 5 28 12 8 8
12 8 12 1 0 -6 -15 -16 -32 -23 -51 -19 -71 -29 -98 -51 l-25 -20 35 17 c42
21 100 35 100 24 0 -4 -17 -14 -37 -23 l-38 -15 33 -1 c18 -1 32 -6 32 -13 0
-9 3 -8 10 2 8 13 11 12 23 -3 12 -18 16 -18 50 -3 29 12 37 21 37 40 0 27 15
36 23 14 6 -19 187 150 203 189 8 17 33 52 56 76 24 25 56 59 72 76 15 18 41
35 57 38 16 3 34 12 40 19 13 16 49 19 49 4 0 -5 5 -10 10 -10 6 0 10 7 10 15
0 8 -16 19 -40 25 -24 6 -40 17 -40 25 0 12 16 15 80 15 47 0 80 4 80 10 0 6
-11 10 -25 10 -14 0 -25 4 -25 8 0 18 26 32 61 32 20 0 42 7 49 15 10 12 5 13
-40 8 -42 -5 -52 -3 -48 7 2 8 19 18 38 23 18 5 52 24 74 43 22 19 45 34 52
34 6 0 17 7 24 15 22 26 33 16 14 -12z m-1371 -109 c42 -63 77 -121 77 -127 0
-8 -3 -8 -9 1 -4 8 -20 12 -34 10 -22 -2 -33 8 -85 88 -33 51 -65 95 -71 98
-27 17 -8 40 35 45 5 0 45 -51 87 -115z m3437 101 c0 -4 -50 -81 -114 -177
-22 -34 -38 -48 -53 -48 -13 0 -23 -4 -23 -10 0 -5 7 -10 15 -10 8 0 15 -4 15
-9 0 -17 -12 -41 -20 -41 -15 0 -40 31 -40 50 0 11 36 73 80 138 76 113 81
118 110 114 16 -2 30 -6 30 -7z m-850 -20 c0 -15 -6 -25 -14 -25 -19 0 -28 14
-20 34 10 25 34 19 34 -9z m-2722 -62 c53 -85 82 -137 82 -151 0 -5 -12 -9
-27 -9 -16 0 -43 -5 -61 -11 l-33 -11 -73 113 c-41 63 -80 117 -87 122 -16 10
30 21 103 23 l46 1 50 -77z m872 61 c0 -17 -22 -14 -28 4 -2 7 3 12 12 12 9 0
16 -7 16 -16z m2897 6 c2 0 -13 -21 -33 -47 -19 -25 -47 -69 -61 -97 -47 -94
-59 -106 -96 -95 -17 5 -44 9 -59 9 -16 0 -28 6 -28 13 0 7 19 46 43 87 24 41
52 90 63 108 l19 34 75 -6 c41 -3 76 -5 77 -6z m-3983 -52 c47 -75 109 -188
105 -192 -10 -9 -100 -46 -111 -46 -12 1 -73 90 -155 226 l-32 53 52 4 c29 2
64 4 80 5 23 2 33 -6 61 -50z m4148 42 l47 0 -90 -140 c-50 -77 -95 -140 -99
-140 -4 0 -27 7 -50 15 -39 14 -45 14 -62 -1 -16 -16 -27 -6 -11 10 4 3 8 13
9 22 3 22 50 110 98 182 40 61 42 63 76 58 19 -3 56 -6 82 -6z m-4390 -22 c17
-13 148 -231 148 -245 0 -4 -8 4 -18 20 -10 15 -22 24 -25 20 -6 -6 -11 11 -8
30 1 4 -9 11 -22 16 -13 5 -35 27 -48 48 -41 67 -69 115 -69 119 0 9 27 3 42
-8z m1509 -14 c13 -37 3 -64 -26 -64 -17 0 -26 8 -34 31 -15 44 -14 47 17 52
15 2 28 5 30 6 1 0 7 -11 13 -25z m2967 -16 c-18 -51 -34 -78 -42 -71 -4 4 -4
0 0 -10 3 -9 11 -14 17 -10 6 3 7 1 3 -6 -6 -9 -11 -9 -21 -1 -11 9 -16 6 -21
-16 -4 -15 -15 -37 -25 -48 -10 -12 -27 -32 -38 -45 -22 -25 -25 -33 -21 -66
1 -16 -1 -17 -11 -8 -16 16 -9 31 84 190 72 122 96 151 75 91z m-3046 5 c3
-10 -1 -31 -7 -46 l-12 -29 -13 31 c-7 17 -17 31 -22 31 -5 0 -7 -4 -4 -8 3
-5 -1 -9 -9 -9 -28 0 -15 24 18 35 45 14 44 14 49 -5z m1691 -19 c-8 -21 -23
-17 -23 6 0 13 5 18 14 14 8 -3 12 -12 9 -20z m87 11 c0 -8 -4 -15 -10 -15 -5
0 -7 7 -4 15 4 8 8 15 10 15 2 0 4 -7 4 -15z m-1905 -5 c3 -5 -3 -10 -14 -10
-12 0 -21 5 -21 10 0 6 6 10 14 10 8 0 18 -4 21 -10z m3195 -8 c0 -5 -7 -17
-15 -28 -14 -18 -14 -17 -4 9 12 27 19 34 19 19z m-1410 -73 c0 -6 -4 -7 -10
-4 -5 3 -10 11 -10 16 0 6 5 7 10 4 6 -3 10 -11 10 -16z m-116 -14 c10 -14 24
-25 31 -25 13 0 29 -29 21 -37 -3 -3 -24 1 -48 9 -42 14 -56 34 -44 64 8 20
19 17 40 -11z m-1419 -6 c4 -12 3 -24 -2 -29 -10 -9 -104 -32 -109 -27 -8 8 8
37 20 36 25 -3 35 2 41 21 8 26 42 26 50 -1z m3644 -50 c21 -6 48 -19 62 -30
l24 -18 -57 -58 c-60 -60 -73 -81 -39 -63 14 7 21 6 24 -3 3 -7 6 -5 6 6 1 9
6 17 12 17 12 0 1 -43 -12 -48 -5 -2 -9 -8 -9 -13 0 -6 6 -7 13 -2 6 4 4 -5
-5 -20 -20 -29 -23 -57 -8 -57 17 0 11 -20 -15 -46 -38 -38 -49 -63 -34 -80
10 -13 8 -14 -17 -10 -27 5 -28 4 -10 -9 19 -14 19 -15 -6 -15 -14 0 -31 7
-38 15 -7 8 -26 15 -42 15 -16 0 -43 6 -61 14 -40 16 -90 73 -83 93 3 8 1 11
-4 8 -6 -3 -10 0 -11 7 0 7 -5 1 -11 -14 -10 -29 -29 -34 -75 -22 -19 5 -23
13 -23 48 2 114 104 244 222 281 53 17 149 19 197 4z m-4519 -28 c0 -10 -6
-21 -14 -24 -11 -4 -11 -1 -2 19 13 29 16 30 16 5z m4129 2 c-20 -3 -26 -9
-22 -22 3 -11 0 -22 -6 -25 -7 -5 -11 4 -11 23 0 29 3 31 33 30 28 -2 29 -2 6
-6z m-4174 -22 c3 -5 1 -12 -5 -16 -5 -3 -10 1 -10 9 0 18 6 21 15 7z m345
-75 c0 -68 -2 -75 -25 -90 l-25 -16 0 79 c0 66 3 82 18 90 30 18 32 13 32 -63z
m2561 64 c16 -9 19 -22 19 -78 0 -80 -8 -98 -34 -79 -27 20 -36 167 -11 167 4
0 15 -5 26 -10z m832 -5 c-3 -9 -8 -14 -10 -11 -3 3 -2 9 2 15 9 16 15 13 8
-4z m-3513 -135 c0 -82 -3 -100 -15 -100 -12 0 -15 17 -15 93 0 52 3 97 7 100
18 19 23 -1 23 -93z m2798 -5 c2 -73 0 -97 -8 -89 -16 16 -29 80 -30 142 0 46
3 53 18 50 15 -3 17 -17 20 -103z m-2427 21 c-16 -19 -3 -25 32 -15 65 18 64
3 -2 -46 -27 -19 -52 -43 -54 -53 -3 -9 -5 18 -6 60 -1 65 2 77 17 80 21 5 28
-8 13 -26z m1876 -13 c-3 -10 -5 -2 -5 17 0 19 2 27 5 18 2 -10 2 -26 0 -35z
m171 35 c13 -13 17 -88 5 -89 -5 0 -15 -2 -24 -4 -9 -1 -29 7 -44 19 -23 19
-26 26 -17 42 6 10 12 14 12 8 0 -12 45 -35 53 -27 3 3 2 16 -4 30 -5 13 -9
26 -9 29 0 8 16 4 28 -8z m-4023 -47 c0 -7 -11 -18 -24 -23 -19 -7 -22 -6 -12
5 13 17 5 28 -17 20 -10 -4 -13 -2 -8 6 10 16 61 10 61 -8z m6584 -32 l-24
-21 30 6 c26 6 27 5 9 -5 -15 -8 -20 -18 -16 -35 3 -15 0 -24 -8 -24 -7 0 -10
7 -6 15 3 8 1 15 -4 15 -6 0 -10 -8 -10 -18 0 -10 -6 -24 -12 -31 -11 -10 -9
-11 7 -6 18 6 18 5 -2 -13 -20 -17 -21 -21 -6 -26 14 -6 14 -8 -3 -21 -18 -13
-18 -14 11 -26 25 -10 27 -13 11 -17 -10 -2 -21 0 -25 5 -10 16 -69 24 -74 10
-6 -15 -27 37 -27 65 0 37 40 106 73 127 18 11 47 21 66 21 l34 0 -24 -21z
m-6306 -54 c-1 -19 2 -33 7 -30 8 5 2 -41 -10 -70 -4 -11 -11 -28 -14 -38 -8
-25 -30 -16 -36 14 -7 34 -32 69 -50 70 -9 0 -5 4 8 9 12 5 28 7 35 4 7 -2 24
7 37 21 19 21 21 25 7 25 -17 0 -24 30 -10 44 13 12 27 -14 26 -49z m5013
-131 c3 -125 1 -175 -6 -168 -6 6 -13 76 -16 158 -5 136 -1 206 12 193 3 -2 7
-85 10 -183z m-4582 64 c8 -127 -8 -149 -19 -25 -5 68 0 147 10 135 1 -2 5
-51 9 -110z m3871 75 c6 -38 -10 -54 -19 -19 -5 22 2 62 10 54 1 -2 5 -18 9
-35z m-3470 -181 c-12 -48 -23 -7 -27 96 -2 62 1 103 7 105 12 5 29 -165 20
-201z m3785 88 c0 -116 -13 -147 -24 -57 -11 97 -8 167 9 167 12 0 15 -19 15
-110z m1724 102 c3 -5 -1 -9 -9 -9 -8 0 -15 4 -15 9 0 4 4 8 9 8 6 0 12 -4 15
-8z m-5196 -30 c3 -19 -1 -23 -15 -20 -10 2 -19 14 -21 26 -3 19 1 23 15 20
10 -2 19 -14 21 -26z m2732 -21 c0 -5 -9 -7 -20 -4 -11 3 -20 7 -20 9 0 2 9 4
20 4 11 0 20 -4 20 -9z m2443 -6 c-3 -9 -8 -14 -10 -11 -3 3 -2 9 2 15 9 16
15 13 8 -4z m364 -7 c-3 -8 -6 -5 -6 6 -1 11 2 17 5 13 3 -3 4 -12 1 -19z
m-5905 -209 c48 -88 89 -167 92 -177 5 -15 -32 -40 -104 -70 -4 -1 -12 9 -18
23 -14 30 -31 32 -62 5 -13 -11 -30 -20 -39 -19 -12 0 -11 3 4 9 19 8 19 9 -4
9 -16 1 -21 5 -17 16 3 9 -4 21 -20 31 -23 16 -26 16 -37 0 -10 -14 -12 -11
-12 19 0 20 6 39 13 44 14 8 36 86 47 164 3 26 10 45 16 42 5 -4 9 1 9 10 0 9
4 14 9 11 5 -3 3 14 -4 38 -8 24 -10 47 -7 51 11 11 41 -35 134 -206z m3989
162 c-5 -23 -5 -38 0 -35 5 3 9 -8 9 -24 0 -33 28 -125 58 -192 11 -25 22 -58
25 -73 4 -26 3 -27 -13 -12 -16 15 -20 14 -44 -8 -14 -13 -26 -29 -26 -36 0
-6 -8 -11 -17 -11 -15 0 -16 -2 -3 -10 13 -8 13 -10 -2 -10 -9 0 -28 5 -42 11
-19 9 -29 9 -40 0 -11 -9 -26 -6 -70 16 -31 15 -56 30 -56 35 0 4 16 34 36 68
19 33 42 77 51 98 13 32 69 129 120 210 20 32 25 23 14 -27z m1562 16 c4 3 7
1 7 -5 0 -17 -16 -15 -31 6 -12 15 -12 16 2 5 9 -7 19 -10 22 -6z m8 -37 c9
13 10 13 6 0 -2 -8 -10 -15 -17 -15 -7 0 -15 7 -17 15 -4 13 -3 13 6 0 10 -13
12 -13 22 0z m-6109 -32 c3 -63 -3 -83 -28 -106 -20 -17 -29 -20 -44 -12 -24
13 -43 13 -35 0 3 -5 1 -10 -5 -10 -8 0 -9 10 -5 30 9 40 -2 38 -15 -2 -6 -22
-9 -24 -6 -8 2 14 7 34 11 45 7 20 6 20 -9 1 -9 -11 -16 -14 -16 -7 0 7 -4 10
-9 7 -5 -3 -15 1 -22 10 -9 10 -9 14 -1 12 7 -2 18 8 25 22 9 18 26 28 62 37
85 19 95 17 97 -19z m5173 8 c24 -13 25 -14 5 -19 -11 -3 -20 -12 -20 -20 0
-21 -28 -29 -38 -10 -8 14 -10 13 -15 -1 -4 -10 -3 -15 3 -11 16 10 12 -11 -5
-25 -8 -7 -15 -29 -15 -49 0 -27 -3 -32 -10 -21 -9 13 -11 13 -20 0 -8 -13
-11 -11 -16 7 -4 13 -11 20 -17 16 -6 -4 -8 0 -4 11 4 10 3 15 -4 11 -23 -15
-39 18 -39 78 l0 60 85 -7 c46 -4 96 -13 110 -20z m162 -23 c4 -10 11 -21 16
-24 6 -4 6 -15 2 -25 -5 -11 -9 -23 -9 -28 -1 -5 -7 -11 -15 -14 -9 -3 -11 0
-6 8 5 8 3 11 -6 8 -8 -3 -13 -11 -12 -19 2 -10 -16 -18 -63 -27 -78 -15 -121
-3 -121 33 0 17 4 20 27 17 22 -3 29 1 35 20 4 12 6 28 5 33 -1 6 2 7 6 2 4
-4 14 -1 23 7 9 8 34 16 56 19 22 2 44 4 48 5 4 1 11 -6 14 -15z m-6837 -35
c0 -18 -2 -20 -9 -8 -6 8 -7 18 -5 22 9 14 14 9 14 -14z m7404 -10 c14 -20 14
-23 0 -31 -56 -32 -87 -105 -71 -169 11 -45 5 -57 -19 -37 -42 35 -57 135 -29
189 18 34 61 70 86 70 10 0 25 -10 33 -22z m-7421 -33 c-3 -9 -8 -14 -10 -11
-3 3 -2 9 2 15 9 16 15 13 8 -4z m6632 -5 c3 -5 1 -10 -4 -10 -6 0 -11 5 -11
10 0 6 2 10 4 10 3 0 8 -4 11 -10z m-4345 -18 c0 -4 -17 -16 -37 -27 -54 -27
-53 -27 -53 -21 0 4 80 56 88 56 1 0 2 -3 2 -8z m1133 -24 c-4 -19 -3 -20 6
-8 7 9 11 10 11 3 0 -17 -17 -25 -25 -13 -4 6 -4 17 -1 25 8 23 15 18 9 -7z
m-1716 -30 c-3 -8 -6 -5 -6 6 -1 11 2 17 5 13 3 -3 4 -12 1 -19z m2196 -20
c-1 -15 3 -29 10 -31 7 -2 5 -3 -3 -3 -8 1 -18 15 -21 31 -4 17 -7 22 -8 12
-1 -16 -9 -18 -61 -15 -39 2 -61 7 -65 16 -9 24 2 27 77 22 72 -5 73 -5 71
-32z m1861 16 c3 -8 2 -12 -4 -9 -6 3 -10 10 -10 16 0 14 7 11 14 -7z m2153
-31 c-3 -10 -5 -2 -5 17 0 19 2 27 5 18 2 -10 2 -26 0 -35z m-5733 21 c3 -8 2
-12 -4 -9 -6 3 -10 10 -10 16 0 14 7 11 14 -7z m1450 10 c32 -12 3 -24 -59
-24 -59 0 -83 8 -68 24 8 8 106 8 127 0z m481 -3 c-9 -15 26 -43 47 -38 10 3
16 1 12 -4 -14 -23 -81 6 -76 34 2 9 8 17 13 17 6 0 8 -4 4 -9z m375 -6 c0
-13 -12 -15 -72 -13 -46 2 -73 7 -76 16 -3 9 16 12 72 12 62 0 76 -3 76 -15z
m3511 -75 c-15 -51 -20 -61 -27 -46 -5 13 -3 21 4 24 7 2 12 11 12 20 0 28 23
98 27 82 2 -8 -5 -44 -16 -80z m-4294 58 c-3 -8 -6 -5 -6 6 -1 11 2 17 5 13 3
-3 4 -12 1 -19z m-3697 -15 c0 -17 26 -111 41 -151 6 -15 6 -21 -1 -17 -5 3
-18 36 -29 73 -32 108 -35 126 -22 118 6 -4 11 -14 11 -23z m4100 -18 c11 -13
10 -14 -4 -9 -9 3 -16 10 -16 15 0 13 6 11 20 -6z m-178 -33 c-3 -15 -7 -19
-12 -12 -4 6 -10 11 -14 11 -3 -1 -6 1 -6 4 0 3 0 9 0 14 0 6 8 9 18 8 14 -1
17 -7 14 -25z m-2432 -207 l0 -205 -40 0 -40 0 0 180 c0 178 0 181 22 189 17
6 26 4 36 -8 7 -9 12 -11 11 -6 -3 20 1 55 6 55 3 0 5 -92 5 -205z m5090 -17
c0 -91 -2 -173 -5 -180 -4 -10 -16 -13 -35 -10 l-30 4 0 199 0 199 35 -22 35
-23 0 -167z m-6513 145 c-3 -10 -5 -4 -5 12 0 17 2 24 5 18 2 -7 2 -21 0 -30z
m7893 -28 c0 -5 -5 -3 -10 5 -5 8 -10 20 -10 25 0 6 5 3 10 -5 5 -8 10 -19 10
-25z m-7863 3 c-3 -8 -6 -5 -6 6 -1 11 2 17 5 13 3 -3 4 -12 1 -19z m52 -28
c0 -9 -4 -8 -9 5 -5 11 -9 27 -9 35 0 9 4 8 9 -5 5 -11 9 -27 9 -35z m7788
-41 l-15 -34 2 36 c0 21 5 35 10 32 4 -3 5 5 2 18 -6 23 -5 23 5 3 8 -15 7
-29 -4 -55z m-5766 -16 c18 -38 33 -72 33 -76 1 -14 -116 -58 -159 -60 l-39
-2 2 40 c2 33 -3 46 -29 73 -17 18 -29 35 -26 38 3 3 33 9 68 14 60 9 65 8 82
-13 l18 -22 -11 23 c-6 13 -9 30 -6 38 12 30 35 11 67 -53z m3730 44 c20 -9
57 -17 82 -19 26 -2 47 -6 47 -10 0 -5 -5 -8 -12 -8 -6 0 -8 -3 -5 -7 4 -3 1
-13 -5 -21 -11 -12 -7 -14 29 -11 35 4 43 1 48 -16 6 -18 8 -18 12 -2 6 24 23
22 23 -4 0 -11 4 -18 9 -14 15 9 23 -13 16 -45 -6 -26 -11 -30 -39 -30 -18 0
-54 11 -79 24 l-47 23 0 -23 c0 -16 -6 -24 -17 -24 -45 0 -183 56 -183 73 0 5
9 22 20 37 11 16 27 45 36 65 8 20 18 35 22 33 4 -2 23 -11 43 -21z m-5831
-39 c0 -19 -2 -20 -10 -8 -13 19 -13 30 0 30 6 0 10 -10 10 -22z m3733 -2 c4
-9 -3 -15 -21 -18 -39 -5 -62 1 -62 18 0 19 76 19 83 0z m457 -1 c0 -11 -12
-15 -45 -15 -70 0 -55 26 18 29 18 1 27 -4 27 -14z m-4080 -63 c-9 -14 -10
-13 -4 7 4 16 3 21 -5 17 -7 -5 -11 3 -11 21 l1 28 15 -28 c11 -20 12 -32 4
-45z m1170 -52 l0 -110 -80 0 -79 0 1 66 c1 74 11 88 91 132 67 36 67 35 67
-88z m2114 90 c5 -5 6 -20 2 -34 -5 -22 -12 -26 -41 -26 -29 0 -36 4 -41 27
-11 44 44 66 80 33z m1117 10 c37 -20 17 -70 -28 -70 -28 0 -43 28 -32 58 9
24 29 28 60 12z m2143 -25 l76 -34 0 -76 0 -75 -81 0 -80 0 3 110 c2 60 4 110
4 110 1 0 36 -16 78 -35z m-4752 -15 c7 -16 16 -30 21 -30 4 0 2 -6 -5 -14 -7
-7 -19 -11 -27 -8 -8 3 -12 1 -8 -5 4 -6 0 -14 -9 -17 -24 -9 -26 -8 -19 17 4
15 3 18 -3 9 -8 -11 -13 -12 -30 -1 -21 13 -20 14 11 46 40 41 52 41 69 3z
m-1243 -67 l-2 -48 -6 40 c-7 38 -5 55 5 55 2 0 3 -21 3 -47z m6548 -15 c-2
-13 -4 -3 -4 22 0 25 2 35 4 23 2 -13 2 -33 0 -45z m-7040 -55 c-6 -5 -37 73
-36 90 0 6 9 -10 20 -37 11 -27 18 -50 16 -53z m375 33 c-4 -53 -3 -55 25 -59
27 -4 27 -4 -4 -6 l-33 -1 0 53 c0 43 5 67 14 67 1 0 -1 -24 -2 -54z m-494 -1
c-3 -3 -9 2 -12 12 -6 14 -5 15 5 6 7 -7 10 -15 7 -18z m7279 -7 c-3 -7 -5 -2
-5 12 0 14 2 19 5 13 2 -7 2 -19 0 -25z m-7206 -15 c-12 -20 -14 -14 -5 12 4
9 9 14 11 11 3 -2 0 -13 -6 -23z m2017 -105 c23 -62 42 -118 42 -125 0 -6 -28
-20 -62 -31 -96 -31 -114 -33 -127 -18 -16 19 7 27 31 12 32 -20 33 5 1 32
-31 26 -67 78 -79 115 -4 9 -11 17 -16 17 -6 0 -8 7 -4 15 3 8 1 15 -4 15 -6
0 -10 6 -10 14 0 16 21 26 53 26 12 1 45 9 72 20 28 10 53 19 56 19 3 1 24
-50 47 -111z m3680 88 c18 -6 31 -15 28 -21 -2 -6 17 -10 46 -10 40 0 46 -2
33 -11 -14 -10 -14 -12 0 -17 12 -5 11 -12 -10 -44 -14 -21 -28 -42 -33 -48
-4 -5 -18 -24 -30 -42 -20 -29 -21 -32 -5 -36 10 -2 -9 -3 -42 -1 -33 2 -51 1
-40 -2 27 -8 43 -24 24 -24 -36 0 -119 32 -119 45 0 8 19 64 42 125 33 89 45
109 57 104 9 -4 31 -12 49 -18z m1506 -11 c-5 -11 -22 -15 -65 -15 -32 0 -59
3 -59 8 0 4 26 6 57 4 42 -2 54 0 43 7 -12 9 -11 11 7 11 16 0 21 -4 17 -15z
m-3359 -17 c3 -13 4 -79 3 -148 l-3 -125 -27 -9 c-51 -18 -58 0 -58 154 0 75
3 140 7 143 3 4 21 7 39 7 27 0 35 -5 39 -22z m-2207 -147 c132 -164 402 -409
572 -518 30 -20 78 -51 106 -69 174 -111 498 -242 764 -309 261 -65 449 -88
745 -89 364 -1 642 51 1015 189 442 164 805 420 1127 795 l65 75 546 -4 c394
-2 549 -6 554 -15 5 -7 -3 -15 -20 -20 -15 -5 -259 -11 -542 -14 l-515 -4 -45
-55 c-123 -148 -350 -356 -538 -490 -336 -240 -786 -417 -1242 -488 -142 -22
-540 -31 -696 -16 -328 33 -599 101 -896 222 -385 158 -705 389 -1022 741
l-78 87 -486 4 c-268 3 -498 7 -511 9 -14 3 -27 10 -29 16 -2 7 -13 13 -25 14
-12 2 203 5 478 8 275 3 525 6 555 8 l55 2 63 -79z m-1536 27 c-8 -8 -9 -4 -5
13 4 13 8 18 11 10 2 -7 -1 -18 -6 -23z m-94 -3 c-3 -3 -9 2 -12 12 -6 14 -5
15 5 6 7 -7 10 -15 7 -18z m39 -17 c-3 -8 -6 -5 -6 6 -1 11 2 17 5 13 3 -3 4
-12 1 -19z m3465 -10 c-13 -13 -95 -5 -99 9 -3 8 11 13 39 15 46 3 75 -9 60
-24z m661 15 c20 -12 2 -23 -37 -23 -45 0 -63 11 -51 30 6 10 67 5 88 -7z
m-4040 -13 c3 -11 3 -20 1 -20 -2 0 -8 9 -14 20 -6 11 -7 20 -2 20 6 0 12 -9
15 -20z m-95 -55 c-3 -3 -9 2 -12 12 -6 14 -5 15 5 6 7 -7 10 -15 7 -18z
m6362 -175 l95 -190 115 -107 c63 -59 115 -113 115 -119 0 -7 -27 -44 -60 -83
l-60 -72 -115 119 -115 119 -80 12 c-195 30 -261 48 -323 87 -34 22 -61 42
-60 45 2 3 24 30 50 58 l47 53 136 -34 c92 -23 134 -30 131 -22 -3 7 -33 57
-66 110 l-61 97 18 35 c32 61 58 82 100 82 l38 -1 95 -189z m-670 152 c0 -4
-10 -9 -22 -9 -18 -2 -20 0 -8 7 18 12 30 13 30 2z m-5560 -6 c0 -3 -4 -8 -10
-11 -5 -3 -10 -1 -10 4 0 6 5 11 10 11 6 0 10 -2 10 -4z m1276 -77 c27 -34 48
-67 46 -73 -19 -61 -389 -676 -407 -676 -9 0 -49 43 -108 116 -17 22 -16 24
27 96 l45 73 -59 59 -59 60 -71 -28 c-39 -16 -72 -27 -74 -25 -34 44 -108 160
-105 163 3 3 56 25 119 50 63 25 221 90 350 145 129 54 238 100 241 100 3 1
28 -27 55 -60z m744 -14 c7 -9 8 -15 2 -15 -5 0 -12 7 -16 15 -3 8 -4 15 -2
15 2 0 9 -7 16 -15z m5293 -60 c-3 -9 -8 -14 -10 -11 -3 3 -2 9 2 15 9 16 15
13 8 -4z m-7215 -40 c-3 -3 -9 2 -12 12 -6 14 -5 15 5 6 7 -7 10 -15 7 -18z
m2017 5 c3 -5 1 -10 -4 -10 -6 0 -11 5 -11 10 0 6 2 10 4 10 3 0 8 -4 11 -10z
m-56 -27 c-5 -29 2 -36 17 -17 14 18 14 18 3 -6 -7 -14 -20 -32 -29 -40 -9 -8
-15 -20 -13 -27 8 -21 -19 -25 -40 -5 -12 11 -39 31 -59 45 l-37 24 65 6 c36
2 71 10 77 16 13 13 17 14 16 4z m-506 -155 c103 -95 134 -139 149 -211 30
-144 -72 -304 -197 -312 -26 -2 -48 -5 -50 -6 -2 -2 -8 -65 -15 -139 -7 -74
-15 -152 -18 -173 l-7 -37 -83 65 c-46 36 -85 72 -88 80 -3 7 2 68 10 135 19
141 19 150 7 150 -5 0 -43 -41 -85 -90 l-77 -90 -65 57 c-35 31 -64 61 -64 67
1 6 66 88 146 181 80 94 189 223 242 287 53 64 99 117 101 117 2 1 44 -36 94
-81z m2125 -206 l2 -253 -47 3 -48 3 0 235 c0 129 3 243 7 253 6 14 17 17 45
15 l38 -3 3 -253z m670 250 c15 -10 52 -108 52 -140 0 -17 -9 -27 -35 -38 -19
-7 -39 -14 -44 -14 -6 0 -26 34 -45 75 -52 113 -52 113 -14 118 59 7 73 7 86
-1z m-1318 -6 c0 -6 -47 -128 -61 -158 -7 -16 -20 -28 -31 -28 -22 0 -78 27
-78 38 0 4 10 40 22 80 l23 72 62 0 c35 0 63 -2 63 -4z m2739 -88 c39 -29 70
-56 70 -61 1 -8 -63 -67 -120 -112 -22 -16 -39 -32 -39 -35 1 -3 16 -23 34
-44 l33 -39 64 52 c35 28 68 50 74 50 5 -1 34 -27 62 -58 l53 -57 -70 -58
c-39 -31 -70 -63 -70 -70 0 -7 15 -29 33 -50 l32 -36 84 67 c46 38 91 74 100
80 15 11 26 4 79 -50 45 -45 61 -68 56 -80 -6 -17 -156 -145 -288 -247 l-69
-53 -24 29 c-44 54 -433 604 -433 612 0 5 28 29 63 54 34 26 91 71 126 102 36
31 68 56 73 56 4 0 39 -24 77 -52z m1404 27 c-3 -9 -8 -14 -10 -11 -3 3 -2 9
2 15 9 16 15 13 8 -4z m-6833 -176 c0 -6 -4 -7 -10 -4 -5 3 -10 11 -10 16 0 6
5 7 10 4 6 -3 10 -11 10 -16z m78 -114 c-3 -3 -9 2 -12 12 -6 14 -5 15 5 6 7
-7 10 -15 7 -18z m1597 -48 c93 -34 165 -125 165 -209 0 -41 0 -41 -92 -53
-45 -6 -48 -5 -83 33 -43 49 -74 58 -120 36 -57 -27 -133 -134 -149 -210 -18
-83 67 -164 170 -164 22 0 34 -5 34 -14 0 -23 -111 -186 -127 -186 -8 0 -41
14 -73 31 -208 111 -256 327 -120 538 115 177 258 249 395 198z m-1674 -14
c13 -16 12 -17 -3 -4 -10 7 -18 15 -18 17 0 8 8 3 21 -13z m4876 -27 c10 -13
74 -123 143 -245 69 -121 129 -221 134 -221 5 0 52 27 105 61 l95 61 20 -28
c97 -132 96 -131 78 -147 -36 -32 -372 -232 -377 -225 -18 26 -358 673 -359
684 -1 16 104 84 131 84 6 0 20 -11 30 -24z m1603 -109 c0 -2 -10 -12 -22 -23
l-23 -19 19 23 c18 21 26 27 26 19z m-4329 -73 c35 -14 69 -30 74 -34 7 -6 8
-50 4 -127 -4 -65 -12 -221 -18 -348 -7 -126 -14 -256 -18 -288 -6 -57 -6 -58
-32 -52 -14 3 -57 18 -95 33 l-69 26 6 87 6 87 -86 32 -86 33 -56 -62 -56 -62
-87 43 c-49 24 -88 47 -88 51 0 8 94 116 424 485 59 67 109 122 110 122 2 0
31 -12 67 -26z m2347 -86 c22 -51 73 -174 112 -273 40 -99 73 -181 73 -182 1
-1 42 18 92 43 151 74 136 75 185 -18 35 -67 40 -83 28 -93 -17 -17 -241 -120
-342 -157 -89 -33 -85 -34 -112 47 -9 28 -66 184 -125 349 -60 164 -109 304
-109 311 0 13 109 62 141 64 12 1 29 -27 57 -91z m1888 54 c-17 -16 -18 -16
-5 5 7 12 15 20 18 17 3 -2 -3 -12 -13 -22z m-3845 -96 c167 -46 235 -89 284
-178 50 -92 47 -267 -7 -426 -28 -80 -73 -133 -143 -167 -74 -37 -147 -41
-270 -17 -130 26 -155 36 -149 59 14 60 166 683 174 715 6 21 14 38 18 38 4 0
46 -11 93 -24z m3769 21 c0 -2 -12 -14 -27 -28 l-28 -24 24 28 c23 25 31 32
31 24z m-2122 -179 c137 -217 312 -511 312 -526 0 -10 -145 -62 -174 -62 -10
0 -78 102 -88 132 -2 5 -42 -1 -90 -13 -97 -24 -90 -16 -103 -131 l-6 -57 -67
-14 c-134 -30 -132 -30 -132 -13 0 16 78 768 83 795 1 11 106 53 149 60 3 1
55 -77 116 -171z m-915 66 l107 -7 0 -93 0 -94 -119 0 -119 0 -4 -51 c-1 -28
-1 -53 1 -55 2 -2 46 -4 98 -4 l93 0 0 -90 0 -90 -104 0 c-115 0 -116 0 -116
-76 0 -29 3 -32 38 -38 20 -3 79 -6 130 -6 l92 0 0 -95 0 -95 -27 -1 c-135 -3
-438 12 -448 23 -2 1 3 57 10 123 7 66 23 228 34 360 12 132 24 255 27 274 l5
34 97 -6 c53 -4 145 -9 205 -13z m2782 -134 c-3 -5 -12 -10 -18 -10 -7 0 -6 4
3 10 19 12 23 12 15 0z m-65 -56 c-8 -8 -23 -20 -34 -25 -13 -7 -9 -1 9 15 34
29 43 33 25 10z m-1817 -911 c-7 -2 -19 -2 -25 0 -7 3 -2 5 12 5 14 0 19 -2
13 -5z m-590 -80 c-7 -2 -21 -2 -30 0 -10 3 -4 5 12 5 17 0 24 -2 18 -5z
m-170 -10 c-7 -2 -19 -2 -25 0 -7 3 -2 5 12 5 14 0 19 -2 13 -5z"/>
<path d="M9152 4615 c0 -16 2 -22 5 -12 2 9 2 23 0 30 -3 6 -5 -1 -5 -18z"/>
<path d="M9206 4554 c-9 -24 -7 -62 4 -69 6 -4 10 12 10 39 0 48 -4 56 -14 30z"/>
<path d="M1021 4524 c0 -11 3 -14 6 -6 3 7 2 16 -1 19 -3 4 -6 -2 -5 -13z"/>
<path d="M1082 4470 c0 -14 2 -19 5 -12 2 6 2 18 0 25 -3 6 -5 1 -5 -13z"/>
<path d="M9180 4470 c0 -5 5 -10 10 -10 6 0 10 5 10 10 0 6 -4 10 -10 10 -5 0
-10 -4 -10 -10z"/>
<path d="M1040 4341 c0 -11 4 -21 9 -21 18 0 21 18 6 30 -13 10 -15 9 -15 -9z"/>
<path d="M1117 4293 c-4 -3 -7 -14 -7 -24 0 -10 -7 -22 -16 -27 -15 -8 -15
-10 0 -15 17 -7 20 -3 30 46 6 27 5 32 -7 20z"/>
<path d="M9164 4275 c-3 -8 -4 -20 -2 -27 3 -7 7 -1 10 15 6 29 1 36 -8 12z"/>
<path d="M1068 4195 c-3 -14 -1 -28 3 -31 5 -3 9 9 9 25 0 38 -6 40 -12 6z"/>
<path d="M9152 4190 c0 -14 2 -19 5 -12 2 6 2 18 0 25 -3 6 -5 1 -5 -13z"/>
<path d="M1141 4180 c0 -8 4 -24 9 -35 5 -13 9 -14 9 -5 0 8 -4 24 -9 35 -5
13 -9 14 -9 5z"/>
<path d="M1142 4055 c0 -16 2 -22 5 -12 2 9 2 23 0 30 -3 6 -5 -1 -5 -18z"/>
<path d="M1157 4028 c-4 -12 -4 -24 -2 -27 3 -2 5 1 5 9 0 10 4 10 17 -1 15
-12 16 -12 10 4 -4 10 -7 23 -7 28 0 18 -18 8 -23 -13z"/>
<path d="M3307 8419 c7 -7 15 -10 18 -7 3 3 -2 9 -12 12 -14 6 -15 5 -6 -5z"/>
<path d="M3270 8320 c0 -5 5 -10 11 -10 5 0 7 5 4 10 -3 6 -8 10 -11 10 -2 0
-4 -4 -4 -10z"/>
<path d="M3292 8298 c-7 -7 -12 -17 -12 -22 0 -8 3 -7 8 0 4 6 16 16 27 22 15
8 16 11 5 12 -9 0 -21 -5 -28 -12z"/>
<path d="M3250 8249 c0 -5 5 -7 10 -4 6 3 10 8 10 11 0 2 -4 4 -10 4 -5 0 -10
-5 -10 -11z"/>
<path d="M6880 8050 c0 -5 5 -10 11 -10 5 0 7 5 4 10 -3 6 -8 10 -11 10 -2 0
-4 -4 -4 -10z"/>
<path d="M6616 8024 c-9 -22 -8 -24 9 -24 8 0 15 9 15 20 0 24 -15 27 -24 4z"/>
<path d="M6890 8014 c0 -8 5 -12 10 -9 6 3 10 10 10 16 0 5 -4 9 -10 9 -5 0
-10 -7 -10 -16z"/>
<path d="M3930 7990 c-9 -6 -10 -10 -3 -10 6 0 15 5 18 10 8 12 4 12 -15 0z"/>
<path d="M6537 7962 c-23 -25 -21 -42 3 -42 16 0 20 7 20 30 0 35 -2 36 -23
12z"/>
<path d="M6460 7937 c0 -10 -10 -22 -22 -27 -14 -5 -17 -9 -7 -9 8 -1 24 5 35
13 15 12 17 17 7 27 -11 11 -13 10 -13 -4z"/>
<path d="M3167 8339 c7 -7 15 -10 18 -7 3 3 -2 9 -12 12 -14 6 -15 5 -6 -5z"/>
<path d="M3799 7693 c-13 -17 -13 -17 5 -3 18 14 19 13 13 -2 -4 -12 -2 -18 7
-18 9 0 12 7 9 20 -7 25 -16 25 -34 3z"/>
<path d="M4618 7693 c34 -2 90 -2 125 0 34 2 6 3 -63 3 -69 0 -97 -1 -62 -3z"/>
<path d="M5133 7693 c9 -2 25 -2 35 0 9 3 1 5 -18 5 -19 0 -27 -2 -17 -5z"/>
<path d="M5278 7693 c45 -2 119 -2 165 0 45 1 8 3 -83 3 -91 0 -128 -2 -82 -3z"/>
<path d="M6357 7689 c7 -7 15 -10 18 -7 3 3 -2 9 -12 12 -14 6 -15 5 -6 -5z"/>
<path d="M3580 7436 c0 -7 -9 -23 -20 -36 -11 -13 -17 -26 -14 -29 3 -3 15 5
26 19 18 21 20 22 14 4 -6 -19 -4 -20 76 -12 89 9 113 17 52 19 -21 1 -31 3
-21 6 18 5 18 5 0 18 -16 12 -15 13 12 13 17 0 41 -3 55 -6 l25 -5 -25 -7
c-19 -6 -13 -8 28 -9 33 -1 52 3 52 11 0 8 31 9 118 4 220 -15 442 -17 442 -4
0 8 38 9 140 4 155 -8 420 2 420 16 0 5 -294 8 -690 8 -555 -1 -690 -4 -690
-14z m497 -2 c-3 -3 -12 -4 -19 -1 -8 3 -5 6 6 6 11 1 17 -2 13 -5z m151 -1
c-10 -2 -28 -2 -40 0 -13 2 -5 4 17 4 22 1 32 -1 23 -4z m555 0 c-13 -2 -33
-2 -45 0 -13 2 -3 4 22 4 25 0 35 -2 23 -4z"/>
<path d="M5138 7443 c12 -2 32 -2 45 0 12 2 2 4 -23 4 -25 0 -35 -2 -22 -4z"/>
<path d="M5452 7441 c54 -4 101 -10 105 -14 3 -4 -147 -7 -335 -7 -188 0 -342
-3 -342 -7 0 -10 -765 -10 -905 -1 -55 4 -89 4 -75 0 17 -4 -3 -9 -60 -13 -79
-5 -75 -5 55 -8 168 -4 92 -4 1425 -2 591 1 1112 -2 1156 -5 57 -5 83 -3 88 5
5 7 20 9 40 5 29 -5 34 -3 39 17 8 30 1 39 -31 38 l-27 -1 30 -8 c27 -7 26 -8
-15 -9 -29 0 -40 2 -31 8 7 5 -256 8 -600 8 -338 0 -570 -3 -517 -6z m868 -15
c0 -8 12 -17 28 -19 15 -2 -4 -5 -42 -6 -38 0 -66 2 -63 6 4 3 2 12 -4 20 -9
10 -3 13 35 13 33 0 46 -4 46 -14z m-525 -16 c40 -6 43 -7 15 -8 -19 0 -57 3
-85 8 -40 6 -43 7 -15 8 19 0 58 -3 85 -8z m638 3 c-7 -2 -19 -2 -25 0 -7 3
-2 5 12 5 14 0 19 -2 13 -5z m-1300 -10 c-40 -2 -107 -2 -150 0 -43 1 -10 3
72 3 83 0 118 -2 78 -3z m349 0 c-40 -2 -103 -2 -140 0 -37 2 -4 3 73 3 77 0
107 -2 67 -3z m516 0 c-26 -2 -71 -2 -100 0 -29 2 -8 3 47 3 55 0 79 -1 53 -3z
m130 0 c-10 -2 -26 -2 -35 0 -10 3 -2 5 17 5 19 0 27 -2 18 -5z m402 -2 c0 -4
-11 -6 -25 -3 -14 2 -25 6 -25 8 0 2 11 4 25 4 14 0 25 -4 25 -9z"/>
<path d="M6655 7400 c3 -5 8 -10 11 -10 2 0 4 5 4 10 0 6 -5 10 -11 10 -5 0
-7 -4 -4 -10z"/>
<path d="M4067 6781 c-3 -11 1 -22 8 -25 9 -3 12 2 10 16 -6 29 -12 32 -18 9z"/>
<path d="M5808 6793 c6 -2 18 -2 25 0 6 3 1 5 -13 5 -14 0 -19 -2 -12 -5z"/>
<path d="M6118 6793 c6 -2 18 -2 25 0 6 3 1 5 -13 5 -14 0 -19 -2 -12 -5z"/>
<path d="M6123 6773 c9 -2 23 -2 30 0 6 3 -1 5 -18 5 -16 0 -22 -2 -12 -5z"/>
<path d="M5738 6673 c7 -3 16 -2 19 1 4 3 -2 6 -13 5 -11 0 -14 -3 -6 -6z"/>
<path d="M4265 6650 c-4 -6 -17 -7 -29 -4 -21 5 -23 3 -19 -20 6 -30 23 -45
23 -21 0 9 6 15 13 14 24 -3 35 1 40 15 7 16 -19 30 -28 16z"/>
<path d="M5310 6649 c-30 -5 -93 -7 -140 -5 -47 2 -77 2 -67 -1 9 -2 15 -8 13
-11 -2 -4 52 -8 120 -10 84 -2 124 0 124 7 0 6 18 11 40 11 22 0 40 -4 40 -10
0 -5 -18 -10 -40 -10 -33 0 -40 -3 -40 -20 0 -17 7 -20 40 -20 22 0 40 -4 40
-10 0 -6 45 -11 113 -11 76 -1 101 -4 77 -9 -31 -7 -28 -8 25 -9 41 -2 54 -5
40 -10 -15 -6 -5 -9 35 -13 44 -5 57 -2 67 11 9 14 23 17 69 13 40 -3 55 -1
50 7 -5 7 2 11 18 11 14 0 25 -4 24 -9 -2 -5 2 -10 7 -10 15 -2 18 38 5 54 -9
11 -8 18 5 31 14 15 18 15 26 3 5 -9 9 -10 9 -2 0 6 -6 15 -12 20 -16 10 -298
11 -291 1 2 -5 -3 -8 -12 -8 -10 0 -13 5 -9 12 4 7 3 8 -5 4 -18 -12 -241 -16
-241 -5 0 11 -54 10 -130 -2z m290 -24 c0 -16 2 -17 59 -19 22 0 42 -4 45 -7
4 -3 -36 -4 -89 -2 -60 2 -95 0 -95 -7 0 -5 -18 -10 -40 -10 -33 0 -40 3 -40
20 0 17 7 20 40 20 22 0 40 5 40 10 0 6 18 10 40 10 29 0 40 -4 40 -15z m346
-31 c-3 -8 -9 -14 -13 -13 -4 1 -27 1 -50 0 -50 -1 -57 -18 -10 -24 l32 -4
-30 -1 c-34 -1 -92 39 -81 57 4 6 34 11 66 11 33 0 62 5 66 11 9 16 28 -17 20
-37z"/>
<path d="M4385 6640 c-3 -5 -1 -10 4 -10 6 0 11 5 11 10 0 6 -2 10 -4 10 -3 0
-8 -4 -11 -10z"/>
<path d="M4420 6645 c0 -1 9 -12 20 -25 15 -17 17 -27 9 -41 -8 -16 -6 -19 11
-19 15 0 20 7 20 25 0 23 4 25 40 25 31 0 40 -4 40 -17 0 -15 2 -16 10 -3 9
13 10 13 10 0 0 -13 1 -13 10 0 9 13 10 13 10 0 0 -13 1 -13 10 0 8 12 10 12
10 1 0 -10 3 -11 14 -2 8 7 94 16 210 23 108 7 196 15 196 20 0 4 -12 8 -27 9
-83 2 -593 6 -593 4z"/>
<path d="M4264 6565 c3 -9 6 -19 6 -21 0 -2 6 -4 14 -4 21 0 12 34 -9 39 -13
2 -16 -1 -11 -14z"/>
<path d="M4850 6573 c-19 -2 -48 -9 -63 -15 -40 -16 -15 -26 48 -19 l50 5 -45
7 c-25 4 27 5 116 2 143 -5 161 -3 161 11 0 14 -16 16 -116 14 -64 0 -132 -3
-151 -5z"/>
<path d="M5280 6568 c0 -4 19 -8 42 -8 23 0 38 3 34 7 -10 10 -76 11 -76 1z"/>
<path d="M4600 6550 c0 -5 -9 -10 -20 -10 -11 0 -20 -4 -20 -10 0 -16 77 -12
83 4 3 8 3 17 0 20 -10 10 -43 7 -43 -4z"/>
<path d="M5298 6543 c12 -2 32 -2 45 0 12 2 2 4 -23 4 -25 0 -35 -2 -22 -4z"/>
<path d="M5420 6541 c0 -11 86 -9 96 2 4 4 -16 7 -44 7 -29 0 -52 -4 -52 -9z"/>
<path d="M4365 6530 c72 -12 115 -11 115 0 0 6 -33 9 -82 9 -78 -2 -80 -2 -33
-9z"/>
<path d="M4978 6523 c12 -2 32 -2 45 0 12 2 2 4 -23 4 -25 0 -35 -2 -22 -4z"/>
<path d="M3798 7059 c-10 -10 -18 -22 -18 -25 0 -3 37 -44 81 -90 54 -57 80
-77 75 -62 -3 13 -6 31 -6 41 0 9 -6 17 -13 17 -18 0 -107 88 -107 106 0 8 4
14 10 14 5 0 7 -6 4 -13 -3 -8 3 -13 15 -13 16 0 17 4 8 23 -12 27 -26 28 -49
2z"/>
<path d="M3786 6798 c-3 -50 -6 -202 -6 -338 l0 -247 72 -46 c39 -26 77 -47
83 -47 18 0 25 118 25 403 l0 250 -41 36 c-41 35 -108 81 -120 81 -3 0 -9 -41
-13 -92z m81 -30 c19 -17 23 -32 23 -76 l0 -54 -25 30 c-24 29 -47 122 -30
122 5 0 19 -10 32 -22z m23 -217 c0 -14 3 -37 6 -51 5 -23 3 -22 -30 12 -28
29 -36 46 -36 73 l0 36 30 -23 c20 -14 30 -31 30 -47z m-12 -119 c5 -9 12 -37
16 -61 l7 -45 -23 19 c-40 34 -48 48 -48 87 0 35 2 38 20 28 11 -6 24 -18 28
-28z m-10 -138 c16 -11 22 -25 22 -54 l0 -38 -30 26 c-20 18 -30 36 -30 54 0
32 7 34 38 12z"/>
<path d="M3765 6190 c9 -15 66 -42 73 -36 3 4 -9 12 -26 18 -18 7 -32 16 -32
20 0 4 -5 8 -11 8 -5 0 -7 -5 -4 -10z"/>
<path d="M6375 7050 c-2 -3 0 -12 6 -20 14 -23 11 -28 -21 -45 -25 -13 -74
-92 -64 -104 10 -12 144 130 144 154 0 13 -58 27 -65 15z"/>
<path d="M2233 6992 c1 -14 5 -18 11 -12 7 7 6 14 -1 21 -9 9 -12 7 -10 -9z"/>
<path d="M8003 7025 c0 -22 2 -30 4 -17 2 12 2 30 0 40 -3 9 -5 -1 -4 -23z"/>
<path d="M2406 6574 c-9 -24 -7 -56 3 -50 12 8 20 55 11 61 -4 3 -11 -2 -14
-11z"/>
<path d="M7744 6514 c-19 -15 -19 -15 1 -6 11 5 27 12 35 15 13 5 13 6 -1 6
-8 1 -24 -6 -35 -15z"/>
<path d="M7035 6840 c3 -5 11 -10 16 -10 6 0 7 5 4 10 -3 6 -11 10 -16 10 -6
0 -7 -4 -4 -10z"/>
<path d="M6883 6578 c-19 -9 -40 -49 -25 -48 4 1 23 14 42 30 34 30 26 39 -17
18z"/>
<path d="M3310 6572 c0 -16 48 -62 65 -62 11 0 -30 62 -47 71 -14 8 -18 6 -18
-9z"/>
<path d="M3010 6589 c-12 -8 -10 -9 8 -4 16 5 22 3 20 -7 -2 -7 8 -14 22 -16
l25 -4 -27 21 c-30 24 -28 24 -48 10z"/>
<path d="M7120 6389 l-75 -40 3 -177 c2 -97 5 -178 6 -179 1 -1 39 12 84 29
l82 32 0 165 c0 159 -5 211 -19 211 -3 0 -40 -19 -81 -41z m50 -228 c0 -41 -4
-51 -25 -65 -13 -9 -27 -16 -31 -16 -13 0 8 105 24 118 27 20 32 14 32 -37z"/>
<path d="M6934 6291 c-51 -23 -54 -35 -54 -238 l0 -154 23 7 c12 4 41 15 65
25 l42 18 0 155 c0 144 -8 206 -27 206 -5 0 -26 -9 -49 -19z m26 -320 c0 -9
-24 -21 -42 -21 -6 0 -6 6 2 15 14 16 40 20 40 6z"/>
<path d="M7316 6081 c-8 -13 4 -43 16 -39 5 2 10 8 10 13 0 6 4 16 10 23 8 9
5 12 -10 12 -12 0 -23 -4 -26 -9z"/>
<path d="M7090 5945 c0 -8 4 -15 10 -15 5 0 7 7 4 15 -4 8 -8 15 -10 15 -2 0
-4 -7 -4 -15z"/>
<path d="M3015 6378 c-3 -29 -5 -115 -3 -192 l3 -138 64 -23 c35 -13 68 -28
74 -34 6 -6 15 -11 19 -11 5 0 7 84 6 187 l-3 187 -70 38 c-38 20 -73 37 -77
37 -4 1 -9 -23 -13 -51z m105 -99 c0 -5 -11 -3 -25 3 -14 6 -25 15 -25 19 0 5
11 3 25 -3 14 -6 25 -15 25 -19z m-27 -81 c19 -14 37 -118 20 -118 -5 0 -19 9
-31 20 -16 15 -22 32 -22 65 0 47 6 53 33 33z"/>
<path d="M3220 6130 c0 -157 1 -171 20 -188 20 -19 96 -49 104 -41 2 2 2 87
-1 188 l-6 183 -33 14 c-18 8 -45 14 -59 14 l-25 0 0 -170z m90 -165 c7 -8 8
-15 2 -15 -5 0 -15 7 -22 15 -7 8 -8 15 -2 15 5 0 15 -7 22 -15z"/>
<path d="M3106 5940 c12 -5 25 -13 29 -19 10 -18 25 -12 25 9 0 17 -6 20 -37
19 -32 0 -34 -2 -17 -9z"/>
<path d="M2337 6189 c7 -7 15 -10 18 -7 3 3 -2 9 -12 12 -14 6 -15 5 -6 -5z"/>
<path d="M7990 6235 c0 -8 2 -15 4 -15 2 0 6 7 10 15 3 8 1 15 -4 15 -6 0 -10
-7 -10 -15z"/>
<path d="M7830 6164 l-25 -15 25 7 c28 7 35 12 29 18 -2 2 -15 -2 -29 -10z"/>
<path d="M2241 5948 c0 -13 59 -65 59 -53 0 4 -8 20 -17 36 -18 29 -43 39 -42
17z"/>
<path d="M2360 5851 c0 -6 5 -13 10 -16 6 -3 10 1 10 9 0 9 -4 16 -10 16 -5 0
-10 -4 -10 -9z"/>
<path d="M5915 6116 c-34 -27 -28 -45 10 -28 15 7 25 20 25 32 0 25 1 25 -35
-4z"/>
<path d="M4267 6121 c4 -16 60 -51 83 -51 5 0 -7 16 -27 35 -40 38 -64 46 -56
16z"/>
<path d="M4240 5925 c0 -96 3 -135 12 -135 6 0 9 -3 6 -6 -4 -3 -16 -1 -27 6
-23 12 -26 8 -11 -20 5 -10 23 -21 40 -25 16 -4 30 -10 30 -14 0 -10 71 -27
93 -23 15 3 17 18 17 138 l0 134 -26 10 c-14 6 -30 10 -35 10 -5 0 -9 -48 -10
-107 0 -70 -3 -101 -9 -88 -5 11 -9 65 -9 120 -1 100 -1 101 -30 118 -16 9
-32 17 -35 17 -3 0 -6 -61 -6 -135z m77 -161 c-3 -3 -12 -4 -19 -1 -8 3 -5 6
6 6 11 1 17 -2 13 -5z"/>
<path d="M4211 5824 c0 -11 3 -14 6 -6 3 7 2 16 -1 19 -3 4 -6 -2 -5 -13z"/>
<path d="M2960 5190 c0 -6 7 -10 15 -10 8 0 15 2 15 4 0 2 -7 6 -15 10 -8 3
-15 1 -15 -4z"/>
<path d="M7108 5650 c-48 -37 -54 -75 -50 -308 l4 -213 81 3 82 3 3 225 c3
236 -2 268 -42 295 -28 20 -49 19 -78 -5z m62 -245 c0 -155 0 -155 -23 -155
-22 0 -23 2 -25 138 -1 75 2 142 6 148 6 9 19 17 40 23 1 1 2 -69 2 -154z m8
-222 c2 -9 -8 -13 -32 -13 -20 0 -36 4 -36 9 0 22 60 25 68 4z"/>
<path d="M3785 5498 c-3 -24 -5 -77 -3 -118 l3 -75 38 -3 37 -3 0 101 c0 112
-9 140 -45 140 -20 0 -25 -6 -30 -42z m37 -75 c23 -21 23 -33 -1 -33 -12 0
-20 9 -23 25 -6 29 -1 31 24 8z"/>
<path d="M3523 5368 c-5 -24 -5 -44 -1 -46 4 -2 8 -18 8 -34 0 -17 3 -29 6
-25 10 10 15 87 5 87 -4 0 -6 14 -3 30 7 46 -6 36 -15 -12z"/>
<path d="M3793 5283 c9 -2 23 -2 30 0 6 3 -1 5 -18 5 -16 0 -22 -2 -12 -5z"/>
<path d="M6370 5525 c-9 -11 -11 -44 -7 -121 2 -58 7 -107 8 -109 2 -2 16 -1
30 2 23 4 27 11 32 50 6 55 0 81 -22 86 -11 3 -9 5 7 6 18 1 22 7 22 35 0 19
-3 41 -6 50 -8 20 -48 21 -64 1z m42 -167 c-6 -6 -15 -8 -19 -4 -4 4 -1 11 7
16 19 12 27 3 12 -12z"/>
<path d="M5368 5593 c7 -3 16 -2 19 1 4 3 -2 6 -13 5 -11 0 -14 -3 -6 -6z"/>
<path d="M4565 5370 c-3 -5 -1 -10 4 -10 6 0 11 5 11 10 0 6 -2 10 -4 10 -3 0
-8 -4 -11 -10z"/>
<path d="M5013 5303 c20 -2 54 -2 75 0 20 2 3 4 -38 4 -41 0 -58 -2 -37 -4z"/>
<path d="M5188 5303 c12 -2 32 -2 45 0 12 2 2 4 -23 4 -25 0 -35 -2 -22 -4z"/>
<path d="M4576 4144 c-4 -9 -4 -19 -1 -22 2 -3 7 3 11 12 4 9 4 19 1 22 -2 3
-7 -3 -11 -12z"/>
<path d="M5646 4093 c-6 -14 -5 -15 5 -6 7 7 10 15 7 18 -3 3 -9 -2 -12 -12z"/>
<path d="M5128 4083 c7 -3 16 -2 19 1 4 3 -2 6 -13 5 -11 0 -14 -3 -6 -6z"/>
<path d="M4945 4060 c-13 -5 -14 -9 -5 -9 8 0 24 4 35 9 13 5 14 9 5 9 -8 0
-24 -4 -35 -9z"/>
<path d="M4978 4043 c6 -2 18 -2 25 0 6 3 1 5 -13 5 -14 0 -19 -2 -12 -5z"/>
<path d="M5066 3974 c-4 -9 -4 -19 -1 -22 3 -3 5 0 5 7 0 6 10 16 23 21 22 9
22 9 1 9 -12 1 -25 -6 -28 -15z"/>
<path d="M1743 4813 c-15 -5 -18 -33 -4 -33 5 0 11 9 14 20 3 11 4 20 4 19 -1
0 -8 -3 -14 -6z"/>
<path d="M1710 4766 c0 -9 5 -16 10 -16 6 0 10 4 10 9 0 6 -4 13 -10 16 -5 3
-10 -1 -10 -9z"/>
<path d="M1700 4723 c0 -12 5 -25 10 -28 13 -8 13 15 0 35 -8 12 -10 11 -10
-7z"/>
<path d="M2277 4684 c7 -54 -11 -107 -47 -141 -35 -33 -29 -48 10 -28 67 35
86 95 51 170 l-19 40 5 -41z"/>
<path d="M4270 4862 c0 -12 19 -26 26 -19 2 2 -2 10 -11 17 -9 8 -15 8 -15 2z"/>
<path d="M5646 4627 c-14 -11 -11 -12 24 -13 22 -1 39 0 38 1 -22 18 -47 23
-62 12z"/>
<path d="M6135 4180 c3 -5 8 -10 11 -10 2 0 4 5 4 10 0 6 -5 10 -11 10 -5 0
-7 -4 -4 -10z"/>
<path d="M6515 3969 c-10 -15 34 -59 59 -59 12 0 45 -25 80 -60 l58 -60 -131
0 c-73 0 -131 -4 -131 -9 0 -40 7 -41 192 -41 139 0 179 3 176 13 -3 6 -35 33
-73 59 -78 55 -135 104 -135 118 0 12 -59 50 -77 50 -6 0 -15 -5 -18 -11z"/>
<path d="M6600 3546 c0 -2 8 -10 18 -17 15 -13 16 -12 3 4 -13 16 -21 21 -21
13z"/>
<path d="M6520 3270 c0 -6 5 -19 12 -29 10 -17 13 -17 29 -3 14 12 16 19 7 30
-10 12 -13 11 -19 -5 -7 -16 -8 -16 -8 0 -1 18 -21 25 -21 7z"/>
<path d="M6640 3242 c0 -5 7 -15 15 -22 8 -7 15 -9 15 -6 0 4 -7 14 -15 22 -8
9 -15 11 -15 6z"/>
<path d="M6570 3196 c0 -20 77 -132 85 -124 3 3 -1 13 -10 21 -16 17 -21 32
-6 23 5 -4 7 3 4 13 -3 11 -11 17 -18 15 -7 -3 -16 3 -19 14 -6 19 -36 51 -36
38z"/>
<path d="M6740 3155 c7 -9 15 -13 17 -11 7 7 -7 26 -19 26 -6 0 -6 -6 2 -15z"/>
<path d="M1440 4781 c0 -5 5 -13 10 -16 6 -3 10 -2 10 4 0 5 -4 13 -10 16 -5
3 -10 2 -10 -4z"/>
<path d="M4506 4545 c-8 -22 19 -38 34 -20 7 9 10 19 6 22 -12 13 -35 11 -40
-2z"/>
<path d="M4420 4423 c-29 -32 -60 -69 -69 -83 -21 -34 -31 -40 -71 -41 -33 0
-33 -1 -12 -11 12 -6 22 -14 22 -17 0 -3 -36 -44 -80 -91 -44 -47 -80 -86 -80
-87 0 -2 16 -3 34 -3 32 0 39 6 87 75 29 42 68 84 86 95 31 18 45 50 23 50 -5
0 -10 5 -10 10 0 6 8 10 18 10 20 0 75 62 86 97 4 12 13 24 21 27 16 6 21 26
7 26 -5 0 -32 -26 -62 -57z"/>
<path d="M4344 4378 l-19 -23 23 19 c21 18 27 26 19 26 -2 0 -12 -10 -23 -22z"/>
<path d="M3823 4091 c-13 -11 -23 -22 -23 -25 0 -3 68 -6 150 -6 l150 0 -50
-64 c-62 -79 -74 -89 -98 -81 -14 4 -18 12 -15 25 5 19 0 20 -74 20 -71 0 -82
-3 -102 -24 -20 -22 -21 -24 -4 -30 10 -4 56 -6 103 -5 47 1 87 -2 89 -6 5 -9
-70 -113 -112 -152 -37 -37 -87 -54 -87 -30 0 8 7 28 15 43 l15 29 -135 3
c-74 1 -135 7 -135 12 0 5 8 15 18 22 9 7 23 23 29 35 8 14 -17 0 -70 -40 -82
-61 -82 -62 -52 -68 17 -4 92 -7 168 -8 75 0 137 -3 137 -5 0 -2 -7 -20 -15
-40 l-15 -36 35 0 c36 0 46 -13 21 -27 -8 -4 -34 -33 -57 -63 -24 -30 -70 -86
-104 -125 -97 -113 -94 -105 -47 -105 39 0 42 3 114 98 166 218 162 213 185
207 12 -3 25 -1 28 5 3 5 -1 10 -9 10 -9 0 -16 5 -16 11 0 14 58 100 78 117 9
7 16 24 17 39 0 26 4 28 60 36 64 9 99 27 52 27 -34 0 -34 5 -1 55 41 61 66
85 88 85 19 0 19 2 -6 24 -14 14 -28 31 -30 38 -4 10 -39 14 -139 16 -120 2
-136 0 -156 -17z"/>
<path d="M3678 3973 c-15 -2 -37 -16 -49 -31 l-21 -27 30 -3 c22 -2 37 5 61
28 43 43 43 43 -21 33z"/>
<path d="M3708 3903 c7 -3 16 -2 19 1 4 3 -2 6 -13 5 -11 0 -14 -3 -6 -6z"/>
<path d="M3595 3290 c-16 -7 -14 -8 12 -7 18 1 33 5 33 10 0 9 -19 8 -45 -3z"/>
<path d="M3690 3255 c0 -8 2 -15 4 -15 2 0 6 7 10 15 3 8 1 15 -4 15 -6 0 -10
-7 -10 -15z"/>
<path d="M3603 3180 c0 -23 3 -28 9 -16 5 9 5 23 0 32 -6 12 -9 7 -9 -16z"/>
<path d="M3617 3145 c-4 -8 -13 -15 -22 -15 -13 0 -14 -2 -3 -14 11 -12 15
-10 26 11 8 14 12 27 9 29 -2 3 -7 -2 -10 -11z"/>
<path d="M7885 4500 c-3 -6 1 -7 9 -4 18 7 21 14 7 14 -6 0 -13 -4 -16 -10z"/>
<path d="M7816 4427 c3 -10 9 -15 12 -12 3 3 0 11 -7 18 -10 9 -11 8 -5 -6z"/>
<path d="M7793 4292 c-1 -22 0 -24 9 -8 6 10 6 22 2 26 -5 5 -10 -3 -11 -18z"/>
<path d="M8650 4305 c-7 -9 -11 -18 -8 -20 3 -3 11 1 18 10 7 9 11 18 8 20 -3
3 -11 -1 -18 -10z"/>
<path d="M2367 4204 c-4 -4 -7 -14 -7 -23 0 -11 3 -12 11 -4 6 6 10 16 7 23
-2 6 -7 8 -11 4z"/>
<path d="M3081 4130 c14 -31 19 -36 19 -24 0 6 -7 19 -16 30 -14 18 -14 18 -3
-6z"/>
<path d="M3120 4055 c0 -5 5 -17 10 -25 5 -8 10 -10 10 -5 0 6 -5 17 -10 25
-5 8 -10 11 -10 5z"/>
<path d="M7030 3870 c0 -5 5 -10 11 -10 5 0 7 5 4 10 -3 6 -8 10 -11 10 -2 0
-4 -4 -4 -10z"/>
<path d="M2475 4134 c-13 -20 -13 -22 3 -19 11 1 16 9 14 21 -2 11 10 -1 28
-24 17 -24 34 -42 37 -39 7 8 -16 47 -28 47 -6 0 -7 5 -4 10 3 6 1 10 -5 10
-6 0 -9 4 -6 8 12 20 -25 6 -39 -14z"/>
<path d="M7842 4103 c4 -32 38 -46 38 -16 0 20 -18 43 -33 43 -4 0 -7 -12 -5
-27z"/>
<path d="M7898 4063 c7 -3 16 -2 19 1 4 3 -2 6 -13 5 -11 0 -14 -3 -6 -6z"/>
<path d="M3236 3497 c3 -10 9 -15 12 -12 3 3 0 11 -7 18 -10 9 -11 8 -5 -6z"/>
<path d="M2471 2949 c-36 -16 -67 -32 -70 -34 -5 -6 39 -55 49 -55 4 0 26 27
49 60 23 33 41 60 39 60 -2 -1 -32 -14 -67 -31z"/>
<path d="M2903 2644 c-70 -81 -70 -80 -23 -104 32 -16 45 -18 61 -10 27 15 59
69 59 100 0 27 -25 70 -40 70 -5 0 -30 -25 -57 -56z"/>
<path d="M3817 1967 c-26 -33 -47 -66 -47 -73 0 -7 11 -15 24 -18 13 -3 31 -8
39 -12 11 -4 16 12 25 78 6 46 10 84 8 85 -1 1 -23 -26 -49 -60z"/>
<path d="M4348 1758 l-45 -193 45 -3 c35 -3 49 2 68 19 32 30 64 135 71 234
l6 81 -32 27 c-60 50 -62 47 -113 -165z"/>
<path d="M5880 1791 l0 -93 33 7 c60 13 60 16 21 91 -20 38 -40 73 -45 79 -5
5 -9 -30 -9 -84z"/>
</g>
</svg>
